<svg xmlns="http://www.w3.org/2000/svg" aria-hidden="true" style="width:0;height:0;position:absolute;overflow:hidden"><defs><symbol id="aliplast_logo" viewBox="0 0 112 32"><path fill="#c2222a" d="M8.611 15.398c3.075 0 3.355-.347 3.355-.935 0-.659-.256-.901-2.726-.901H7.259c-1.888 0-2.283.312-2.283 1.04 0 .572.605.797 2.353.797h1.282zm-7.97-1.162c0-2.409 2.236-2.548 6.572-2.548 2.446 0 3.798.051 4.66.71v-.779c0-.867-.35-1.179-2.098-1.179H7.142c-1.304 0-1.677.086-1.724.71H1.084c0-2.393 1.585-2.79 5.359-2.79h5.196c3.076 0 4.706 1.091 4.706 3.171v5.806h-4.24v-1.006c-1.235.954-1.702 1.144-3.938 1.144H5.114C2.388 17.492.64 17.042.64 14.961v-.728h.001zm23.302-9.445h-4.474v12.548h4.474V4.791zm3.588 12.548h4.473V8.5h-4.473v8.839zm0-9.948h4.473v-2.6h-4.473v2.6zm12.279 5.962c0 1.335.933 1.629 2.704 1.629h2.354c2.143 0 2.353-.555 2.353-1.542v-1.039c0-.989-.21-1.543-2.353-1.543h-2.354c-1.771 0-2.704.294-2.704 1.628v.867zm-4.473-4.852h4.335v1.317h.046c.56-.78 1.585-1.455 4.195-1.455h1.282c5.661 0 6.36 1.508 6.36 3.761v1.594c0 2.253-.7 3.762-6.36 3.762h-.91c-2.539 0-3.425-.26-4.426-1.664h-.048v4.61h-4.473V8.502h-.001zm23.099-3.71h-4.474v12.548h4.474V4.791zm10.246 10.607c3.076 0 3.356-.347 3.356-.935 0-.659-.257-.901-2.729-.901H67.33c-1.888 0-2.284.312-2.284 1.04 0 .572.605.797 2.354.797h1.282zm-7.97-1.162c0-2.409 2.238-2.548 6.572-2.548 2.447 0 3.798.051 4.66.71v-.779c0-.867-.351-1.179-2.099-1.179h-2.632c-1.304 0-1.677.086-1.725.71h-4.333c0-2.393 1.585-2.79 5.359-2.79h5.196c3.075 0 4.707 1.091 4.707 3.171v5.806h-4.242v-1.006c-1.235.954-1.701 1.144-3.938 1.144h-3.051c-2.726.017-4.474-.433-4.474-2.514v-.728zm22.742.348c0 .485.234.814 2.773.814h1.586c2.121 0 2.657-.12 2.657-.658 0-.52-.35-.728-1.935-.728h-4.192c-4.171-.018-5.407-.692-5.407-3.119 0-2.202 2.377-2.531 5.453-2.531h3.123c5.849 0 6.873.607 6.92 2.687h-4.474c-.231-.521-.653-.607-3.334-.607-2.585 0-3.074.052-3.074.658 0 .382.35.521 2.678.521h3.101c5.358 0 5.755 1.334 5.755 2.912 0 2.34-1.258 2.946-6.36 2.946h-4.242c-4.125 0-5.638-.712-5.638-2.895h4.61zm15.333-3.692H96.55V8.499h2.237V6.42h4.474v2.079h6.942v2.393h-6.942v3.397c0 .658.653.798 1.723.798 1.446 0 1.842-.244 1.842-1.058v-.59h3.914v1.075c0 1.681-1.491 2.963-5.055 2.963h-1.77c-2.75 0-5.126-.641-5.126-3.085v-3.501zm11.163-4.807h.342c.262 0 .323-.109.323-.235 0-.171-.18-.186-.318-.186h-.348v.421zm.832.724h-.204l-.374-.57h-.253v.57h-.183V5.506h.567c.237 0 .466.066.466.346 0 .256-.174.363-.406.37l.386.588zm-1.56-.658a.98.98 0 0 0 .979.987c.541 0 .974-.44.974-.987a.976.976 0 0 0-1.953 0zm2.143.006c0 .648-.522 1.164-1.164 1.164a1.163 1.163 0 1 1 0-2.326 1.163 1.163 0 0 1 1.164 1.162z" style="fill:var(--color1,#c2222a)"/><path fill="#696a6c" d="M37.669 23.026h.696l1.883 4.311h-.794l-.435-1.034h-2.023l-.442 1.034h-.77l1.884-4.311zm1.076 2.61-.741-1.711-.734 1.711h1.474zm2.504-2.58H42v3.596h2.25v.685h-3.001v-4.281zm3.882 2.465v-2.465h.752v2.434c0 .795.409 1.217 1.083 1.217.666 0 1.075-.397 1.075-1.186v-2.464h.753v2.427c0 1.279-.721 1.92-1.841 1.92-1.113 0-1.822-.642-1.822-1.882zm5.048-2.465h.801l1.302 2.025 1.302-2.025h.802v4.281h-.752v-3.069l-1.352 2.018h-.025l-1.338-2.006v3.057h-.74v-4.281zm6.416 0h-.752v4.281h.752v-4.281zm1.443 0h.698l2.293 2.96v-2.96h.74v4.281h-.63l-2.36-3.045v3.045h-.74v-4.281zm5.936 0h-.751v4.281h.751v-4.281zm1.401 2.465v-2.465h.752v2.434c0 .795.409 1.217 1.081 1.217.667 0 1.075-.397 1.075-1.186v-2.464h.754v2.427c0 1.279-.722 1.92-1.841 1.92-1.112 0-1.822-.642-1.822-1.882zm5.046-2.465h.802l1.302 2.025 1.303-2.025h.8v4.281h-.752v-3.069l-1.351 2.018H72.5l-1.339-2.006v3.057h-.741v-4.281zm9.265 3.657.453-.539c.41.355.826.556 1.353.556.464 0 .758-.219.758-.538v-.012c0-.306-.17-.47-.966-.654-.911-.221-1.424-.489-1.424-1.279v-.012c0-.734.61-1.241 1.461-1.241.622 0 1.118.19 1.553.538l-.405.568c-.384-.286-.769-.44-1.162-.44-.44 0-.695.227-.695.508v.012c0 .331.194.477 1.02.673.904.22 1.37.545 1.37 1.254v.012c0 .802-.629 1.277-1.528 1.277a2.64 2.64 0 0 1-1.787-.683zm5.68-1.064-1.7-2.593h.893l1.193 1.89 1.21-1.89h.862l-1.699 2.575v1.706h-.758v-1.688zm2.966 1.064.453-.539c.41.355.825.556 1.351.556.464 0 .757-.219.757-.538v-.012c0-.306-.169-.47-.963-.654-.912-.221-1.425-.489-1.425-1.279v-.012c0-.734.61-1.241 1.459-1.241.624 0 1.119.19 1.554.538l-.405.568c-.385-.286-.769-.44-1.16-.44-.44 0-.698.227-.698.508v.012c0 .331.196.477 1.022.673.903.22 1.369.545 1.369 1.254v.012c0 .802-.63 1.277-1.529 1.277a2.638 2.638 0 0 1-1.785-.683zm5.524-2.96H92.5v-.697h3.47v.697h-1.357v3.583h-.758v-3.583zm3.142-.697h3.174v.673H97.75v1.112h2.148v.672H97.75v1.15h2.451v.673h-3.204v-4.281zm4.424 0h.802l1.302 2.025 1.304-2.025h.799v4.281h-.75v-3.069l-1.353 2.018h-.022l-1.341-2.006v3.057h-.741v-4.281zm5.328 3.657.452-.539c.41.355.826.556 1.351.556.466 0 .758-.219.758-.538v-.012c0-.306-.17-.47-.965-.654-.911-.221-1.424-.489-1.424-1.279v-.012c0-.734.61-1.241 1.459-1.241.625 0 1.119.19 1.554.538l-.404.568c-.386-.286-.77-.44-1.163-.44-.44 0-.696.227-.696.508v.012c0 .331.197.477 1.021.673.906.22 1.37.545 1.37 1.254v.012c0 .802-.629 1.277-1.528 1.277a2.636 2.636 0 0 1-1.785-.683z" style="fill:var(--color2,#696a6c)"/></symbol><symbol id="aluprof" viewBox="0 0 126 32"><path fill="#f68712" d="M20.38 12.246h-8.129l-1.43 3.448h8.101l1.459-3.448z" style="fill:var(--color3,#f68712)"/><path fill="#1e1f43" d="M22.289 2.334h4.264v14.95h9.239l-1.453 3.474H22.29V2.334zm13.558 10.318V2.334h4.264v10.16c0 3.501 1.526 4.948 4.106 4.948 2.606 0 4.106-1.448 4.106-4.948V2.334h4.212v10.318c0 5.422-3.106 8.423-8.344 8.423s-8.343-3.001-8.343-8.423zM66.053 9.02c0-2.027-1.316-3.211-3.922-3.211h-3.474v6.396h3.474c2.606 0 3.922-1.184 3.922-3.185zm4.317 0c0 4.106-3.08 6.659-8.002 6.659h-3.711v5.08h-4.264V2.334h7.975c4.922 0 8.002 2.553 8.002 6.686zm33.966 2.526c0-3.501-2.474-5.896-5.764-5.896s-5.764 2.395-5.764 5.896 2.474 5.896 5.764 5.896 5.764-2.395 5.764-5.896zm-15.845 0c0-5.475 4.264-9.528 10.081-9.528 5.79 0 10.081 4.027 10.081 9.528s-4.29 9.528-10.081 9.528c-5.817 0-10.081-4.053-10.081-9.528zm25.792-5.79v6.49h5.164l-1.602 3.448h-3.562v5.065h-4.264V2.335h13.864l-1.519 3.422h-8.081zM84.032 16.489H79.28l3.687 4.269h4.752l-3.687-4.269z" style="fill:var(--color4,#1e1f43)"/><path fill="#1e1f43" d="M83.06 9.02c0-2.027-1.316-3.211-3.921-3.211h-3.474v6.396h3.474c2.605 0 3.921-1.184 3.921-3.185zm4.317 0c0 4.106-3.079 6.659-8.002 6.659h-3.711v5.08H71.4V2.334h7.975c4.922 0 8.002 2.553 8.002 6.686zm-74.174 3.226h4.199l-4.447-9.901H8.734l-8.2 18.414h4.364l5.923-14.24 2.381 5.727zm7.979 8.509h-4.454L14.96 16.5h4.343l1.879 4.255zm26.465 7.5-.992-2.252-.992 2.252h1.983zm.23.525h-2.443l-.506 1.149h-.676l2.082-4.597h.65l2.089 4.597h-.69l-.506-1.149zm2.278-3.448h.657v4.026h2.489v.571h-3.146v-4.597zm4.184 2.614v-2.614h.657v2.588c0 1.018.466 1.478 1.294 1.478s1.3-.46 1.3-1.478v-2.588h.637v2.614c0 1.333-.729 2.036-1.944 2.036-1.208 0-1.944-.702-1.944-2.036zm9.896 1.984-.007-3.349-1.662 2.791h-.302l-1.662-2.771v3.33h-.63v-4.597h.538l1.918 3.231 1.891-3.231h.539l.007 4.597h-.63zm2.41-4.598h.657v4.597h-.657v-4.597zm6.39 0v4.597h-.538l-2.758-3.428v3.428h-.657v-4.597h.538l2.758 3.428v-3.428h.657zm1.779 0h.657v4.597h-.657v-4.597zm2.397 2.614v-2.614h.657v2.588c0 1.018.467 1.478 1.294 1.478s1.3-.46 1.3-1.478v-2.588h.637v2.614c0 1.333-.729 2.036-1.943 2.036-1.208 0-1.944-.702-1.944-2.036zm9.896 1.984-.006-3.349-1.662 2.791h-.302l-1.662-2.771v3.33h-.63v-4.597h.538l1.918 3.231 1.891-3.231h.539l.006 4.597h-.63zm4.157-.526.242-.512c.342.308.926.532 1.518.532.794 0 1.136-.309 1.136-.709 0-1.123-2.785-.414-2.785-2.121 0-.709.552-1.313 1.76-1.313.538 0 1.097.144 1.478.407l-.217.525a2.374 2.374 0 0 0-1.261-.374c-.782 0-1.116.328-1.116.729 0 1.123 2.784.42 2.784 2.108 0 .703-.565 1.307-1.779 1.307-.703 0-1.393-.236-1.76-.578zm6.56-1.064v1.589h-.65v-1.602l-1.826-2.995h.702l1.471 2.423 1.478-2.423h.65l-1.826 3.008zm2.371 1.064.242-.512c.342.308.926.532 1.518.532.794 0 1.136-.309 1.136-.709 0-1.123-2.785-.414-2.785-2.121 0-.709.552-1.313 1.76-1.313.538 0 1.097.144 1.478.407l-.217.525a2.374 2.374 0 0 0-1.261-.374c-.782 0-1.116.328-1.116.729 0 1.123 2.784.42 2.784 2.108 0 .703-.565 1.307-1.779 1.307-.703 0-1.393-.236-1.76-.578zm5.746-3.5h-1.576v-.571h3.802v.571h-1.576v4.026h-.65v-4.026zm6.678 3.454v.571h-3.336v-4.597h3.244v.571h-2.587v1.412h2.305v.558h-2.305v1.484h2.679zm5.727.572-.006-3.349-1.662 2.791h-.302l-1.662-2.771v3.33h-.631v-4.597h.539l1.918 3.231 1.891-3.231h.538l.006 4.597h-.63zm1.989-.526.243-.512c.342.308.926.532 1.517.532.794 0 1.136-.309 1.136-.709 0-1.123-2.785-.414-2.785-2.121 0-.709.552-1.313 1.761-1.313.538 0 1.096.144 1.477.407l-.216.525a2.376 2.376 0 0 0-1.261-.374c-.782 0-1.117.328-1.117.729 0 1.123 2.785.42 2.785 2.108 0 .703-.565 1.307-1.78 1.307-.702 0-1.392-.236-1.76-.578z" style="fill:var(--color4,#1e1f43)"/></symbol></defs></svg>