<svg xmlns="http://www.w3.org/2000/svg" aria-hidden="true" style="width:0;height:0;position:absolute;overflow:hidden"><defs><symbol id="phone" viewBox="0 0 28 32"><path stroke-width=".889" d="M7.589 3.824a1.11 1.11 0 0 0-1.625-.186l-2.588 2.24c-.567.491-.898 1.137-.88 1.796.165 6.07 4.887 17.637 17.526 21.554.823.255 1.737.054 2.443-.512l2.271-1.823a1.112 1.112 0 0 0 .145-1.594l-3.467-4.005a1.11 1.11 0 0 0-1.489-.175l-1.596 1.148c-.786.566-1.874.636-2.708.036-2.189-1.575-5.541-4.684-7.12-8.661-.37-.931-.049-1.938.647-2.56l1.509-1.348c.426-.38.494-1.021.158-1.483L7.589 3.822zM5.091 2.629a2.446 2.446 0 0 1 3.576.409l3.226 4.429a2.444 2.444 0 0 1-.348 3.262l-1.509 1.348c-.331.295-.434.724-.296 1.073 1.446 3.641 4.569 6.567 6.66 8.071.322.232.781.23 1.15-.036l1.596-1.148a2.445 2.445 0 0 1 3.276.384l3.467 4.005a2.444 2.444 0 0 1-.318 3.506L23.3 29.755c-1.016.816-2.385 1.145-3.672.746C6.328 26.38 1.341 14.219 1.164 7.71c-.031-1.145.542-2.15 1.34-2.841l2.588-2.24z"/></symbol><symbol id="proste-okna" viewBox="0 0 25 32"><path d="m23.648 1.473-.547.15c-.597.167-3.497.981-4.32 1.214-.321.09-.836.236-1.143.321l-2.368.667-1.428.402c-1.664.467-2.061.581-2.073.593a2.967 2.967 0 0 0-.026.371c-.012.324-.01.359.024.359.04 0 .517-.119 2.123-.533l2.904-.743c.498-.126 1.166-.298 1.488-.378l1.393-.357c1.412-.359 2.08-.531 2.557-.652.255-.067.471-.114.483-.107.01.007.019 4.992.019 11.081 0 10.307-.002 11.066-.04 11.066-.021 0-.35-.081-.731-.176a5593.147 5593.147 0 0 0-6.93-1.766c-2.442-.624-3.223-.819-3.259-.819s-.038.04-.033.374l.007.371.19.052c.176.048.359.1 1.309.367.431.119 1.74.486 2.487.693 1.733.483 2.926.814 3.725 1.04.209.06.471.131.583.162l.809.224c.333.095.912.255 1.285.359l1.107.309c.236.064.443.119.459.119.021 0 .029-2.49.029-12.376 0-6.808-.007-12.383-.017-12.388a.147.147 0 0 0-.067 0zM1.449 3.937c-.012.026-.017.414-.031 2.483-.019 2.347 0 3.39.059 3.611.038.136-.029.119.736.186.307.026.667.059.797.071a1061.62 1061.62 0 0 0 3.661.334c.038 0 .04-.148.04-2.745V5.13l-.243-.052c-.136-.029-.447-.1-.697-.157-.248-.059-.812-.188-1.25-.286a431.866 431.866 0 0 1-3.028-.693c-.024-.007-.045-.01-.045-.005zm.745.569.781.179c1.057.24 1.345.307 2.321.531l1.024.233.007 2.371c.002 1.376-.005 2.373-.017 2.373-.095 0-4.468-.409-4.478-.419a78.347 78.347 0 0 1-.019-2.076c-.01-2.066.007-3.266.043-3.266.012 0 .164.033.338.074z"/><path d="M21.434 4.149c-.324.076-1.393.321-1.928.438-.324.071-.778.176-2.214.502-.262.059-.495.114-.517.119-.04.012-.043.16-.043 2.661v2.649l.055-.007c.029-.005.236-.026.457-.045.224-.017.881-.076 1.464-.131s1.507-.138 2.054-.188c.548-.052 1-.098 1.007-.105.05-.05.057-.552.043-3.142-.014-2.568-.019-2.826-.055-2.823a5.447 5.447 0 0 0-.324.071zm.188 2.825c.01 1.464.01 2.716.002 2.78l-.017.121-.85.076c-.467.04-1.302.117-1.859.169a179.098 179.098 0 0 1-1.916.174c-.048.005-.048-.012-.055-2.445-.002-1.35.002-2.459.012-2.468.017-.017.445-.114 2.245-.521.612-.138 1.459-.331 2-.455.217-.048.4-.09.407-.09.007-.002.021 1.195.031 2.659zm-14.391.95c0 1.464-.002 2.683-.005 2.709-.002.052-.081.043 1.961.226.464.04 1.128.1 1.473.133.348.031.633.052.638.05.005-.005.014-1.097.024-2.426l.014-2.418-.164-.038c-.09-.019-.331-.076-.533-.121a61.962 61.962 0 0 0-.619-.143c-.328-.074-.712-.162-1.607-.369-.878-.205-1.133-.262-1.159-.262-.01 0-.021 1.197-.024 2.659zm1.761-1.862a295.87 295.87 0 0 1 1.75.405l.183.038v4.121l-.076-.012c-.043-.007-.788-.076-1.654-.152l-1.578-.138V8.046c0-2.047.005-2.28.038-2.28.019 0 .621.133 1.338.298zm6.718-.609c-.15.038-.54.129-.869.2-1.514.343-2.002.452-2.338.531l-.364.086V8.6c0 1.281.007 2.33.019 2.33.079.005 3.806-.343 3.818-.355.06-.052.069-.467.052-2.783a106.256 106.256 0 0 0-.031-2.407 9.42 9.42 0 0 0-.288.067zm.133 4.57c-.007.2-.017.369-.021.374-.007.007-3.383.319-3.459.319-.029 0-.033-.34-.033-2.154 0-1.878.005-2.154.036-2.154s2.09-.462 3.059-.688l.393-.09.019 2.014c.01 1.107.014 2.178.007 2.38zM1.427 13.894v3.109l.126-.012c.067-.007.445-.036.838-.062a1088.533 1088.533 0 0 0 2.94-.205c.307-.019.743-.05.964-.064l.405-.029.021-1.952c.024-2.102.002-3.247-.064-3.428l-.033-.095-.902-.064c-.495-.033-1.062-.074-1.259-.088l-1.535-.107c-.647-.048-1.25-.09-1.338-.098l-.162-.014v3.109zm1.631-2.595c2.885.205 3.237.231 3.249.243.017.017.014 4.689-.002 4.706-.014.014-.252.036-1.164.098-.295.019-1.152.079-1.904.131l-1.397.095c-.024 0-.031-.552-.031-2.678 0-2.535.002-2.678.043-2.678.021 0 .567.038 1.207.083zm18.186-.366c-.131.01-.971.067-1.869.126-1.852.124-2.259.152-2.471.171l-.148.014.005 2.645.007 2.647.417.029c.228.017.888.062 1.464.102 1.75.121 2.678.188 2.935.205l.243.017v-5.982l-.171.002a7.166 7.166 0 0 0-.412.024zm.393 2.959c0 1.521-.005 2.773-.01 2.778a3.977 3.977 0 0 1-.412-.019c-.219-.014-.571-.04-.781-.055l-1.897-.131a182.76 182.76 0 0 0-1.554-.107c-.036 0-.038-.219-.033-2.449.002-1.35.012-2.461.019-2.473s.631-.062 1.383-.112 1.792-.119 2.309-.155c.517-.033.947-.06.959-.052.01.005.017 1.252.017 2.776zM7.254 11.233c-.04.01-.043.157-.043 2.649 0 2.085.007 2.642.031 2.659.038.024.621.017 1.159-.017 1.288-.076 2.499-.171 2.756-.217l.148-.026v-2.314c0-2.249-.002-2.314-.048-2.388-.079-.131-.15-.15-.626-.176a29.596 29.596 0 0 1-.874-.059c-1.323-.107-2.345-.155-2.504-.112zm1.529.438c.348.024.878.062 1.178.081.302.021.638.045.75.055l.202.017-.007 2.059a253.115 253.115 0 0 1-.014 2.064c-.017.017-2.207.174-2.959.209l-.317.017v-4.58l.269.017c.145.01.55.036.897.062zm6.819-.358c-.143.012-.905.064-1.69.117l-1.6.109-.174.014v4.656l.138.014c.074.007.533.04 1.016.074.486.033 1.247.088 1.697.119.45.033.871.059.935.059h.117v-5.189l-.088.002c-.05.002-.207.014-.352.024zm.25 2.567c0 1.309-.007 2.385-.017 2.39-.012.007-.233-.005-.495-.024s-1.043-.074-1.738-.121l-1.262-.088-.007-2.15c-.005-1.707 0-2.149.024-2.157.017-.005.738-.052 1.602-.11.864-.055 1.583-.102 1.595-.107a.918.918 0 0 1 .162-.01l.136-.002v2.378zm-5.082 2.849c-.481.043-2.145.193-2.785.248-.3.026-.597.055-.662.062l-.112.014v2.685c0 1.512.01 2.692.021 2.699s.212-.029.445-.083l3.033-.683.607-.136.007-2.423.005-2.421-.112.002a8.809 8.809 0 0 0-.448.036zm.15 2.442-.007 2.052-.071.017c-.038.01-.179.04-.309.069l-.916.205c-.374.086-.888.202-1.143.259s-.552.124-.659.15l-.198.045V17.41l.126-.014.814-.074c.381-.033 1.024-.093 1.428-.129.407-.038.783-.069.84-.071l.1-.002-.005 2.052zm1.224-.047.007 2.335.238.055c.131.029.55.124.928.212l1.154.262.94.214c.262.059.505.114.543.124l.064.012v-5.194l-.052-.01c-.031-.007-.483-.05-1.007-.098s-1.352-.121-1.842-.167a67.89 67.89 0 0 0-.933-.083c-.045 0-.045.052-.04 2.338zm.661-2.088c1.071.1 2.983.274 3.002.274.012 0 .021.971.021 2.395V22.1l-.064-.017a327.612 327.612 0 0 0-2.09-.476 69.138 69.138 0 0 0-1.326-.298c-.012 0-.019-.969-.019-2.154 0-2.035.002-2.154.043-2.154.021 0 .217.017.433.036zm-7.01.143c-.457.045-1.021.098-1.25.117l-2.668.243-.419.04-.012 3.097a757.867 757.867 0 0 0-.01 3.102c.005.007.471-.098 1.842-.412.205-.048.507-.117.671-.152s.581-.131.928-.209c1.185-.271 1.795-.409 1.814-.409.01 0 .019-1.238.019-2.749 0-2.604-.002-2.749-.04-2.747l-.876.081zm.524 2.725v2.366l-.071.017c-.038.01-.264.059-.5.114-.595.133-2.599.588-2.845.645l-.612.143a9.868 9.868 0 0 1-.438.095c-.021 0-.026-.636-.017-2.666.007-1.469.017-2.671.021-2.676.012-.012 4.406-.414 4.437-.407.017.002.024.812.024 2.368zm10.414-.04v2.652l.138.029c.074.017.319.071.54.124 1.395.317 2.542.576 2.821.638.612.136 1.488.336 1.531.35.038.012.04-.14.04-2.987v-3.002h-.055c-.029 0-1.138-.102-2.466-.226s-2.445-.226-2.48-.226h-.069v2.649zm1.595-2.316 1.916.179c.34.033.747.069.905.083s.326.031.376.038l.088.014v2.771c0 2.473-.005 2.771-.036 2.771-.033 0-.702-.148-1.345-.298a733.74 733.74 0 0 0-2.321-.526 30.857 30.857 0 0 1-.945-.217c-.04-.009-.043-.148-.043-2.468 0-1.352.007-2.464.014-2.471s.031-.01.052-.005c.021.005.624.062 1.338.129zm-6.684 9.593c-.064.026-.055.05.095.262.333.469.288.424.436.44.217.029.348.002.421-.086.124-.145.402-.569.388-.59-.021-.038-.155-.055-.286-.038-.121.014-.129.019-.228.162-.195.283-.16.276-.317.052-.119-.174-.145-.198-.224-.212a.57.57 0 0 0-.286.01zm6.315.052c-.007.017-.01.721-.007 1.566l.007 1.535h.333l.007-.578c.002-.317.014-.576.024-.576s.195.238.414.531c.219.29.419.552.448.583.045.05.069.055.233.048.143-.005.183-.014.19-.045.002-.019-.193-.298-.436-.614l-.445-.581.395-.395c.467-.471.49-.526.219-.526-.155 0-.228.038-.359.188-.314.359-.643.717-.659.717-.01 0-.021-.421-.024-.936l-.007-.933-.162-.007c-.114-.005-.164.002-.171.024zm-2.204.176c-.462.1-.75.357-.907.809-.126.369-.131.952-.007 1.354.167.547.547.807 1.178.805.674 0 1.102-.324 1.278-.962.059-.219.062-.919 0-1.14-.131-.488-.421-.774-.878-.866a1.65 1.65 0 0 0-.664 0zm.688.367c.079.033.167.1.24.181.188.205.264.471.264.921 0 .757-.317 1.164-.905 1.164-.438-.002-.686-.179-.812-.576-.071-.221-.09-.759-.036-1.002.09-.409.298-.652.626-.736.155-.038.478-.014.621.048zm-14.842-.31-.055.05v1.4c0 1.257.005 1.402.038 1.416.071.026.452.014.493-.017.036-.024.04-.09.045-.505l.007-.476.309-.017c.481-.024.75-.145.938-.426.117-.176.157-.333.155-.607-.002-.176-.014-.238-.062-.345a.726.726 0 0 0-.326-.362c-.236-.129-.305-.14-.919-.152-.557-.012-.574-.01-.624.04zm.997.431a.381.381 0 0 1 .305.307c.057.236-.033.49-.207.597-.076.048-.131.057-.333.064l-.245.01v-.486c0-.269.007-.495.017-.502.024-.026.326-.019.464.01zm7.394-.238c-.036.019-.043.062-.043.271v.25h-.14c-.079 0-.148.009-.155.021-.033.052-.04.236-.017.331l.029.1h.283v.54c0 .3.012.612.024.697a.603.603 0 0 0 .271.44c.109.067.131.071.357.071.255 0 .378-.033.419-.109.031-.055.031-.371 0-.39a.523.523 0 0 0-.162.014c-.114.024-.15.024-.207-.005-.112-.055-.129-.138-.129-.731l-.002-.528h.238c.276 0 .286-.007.286-.236 0-.221.007-.217-.276-.217h-.248v-.25c0-.221-.005-.25-.045-.274-.059-.031-.431-.031-.483.002zm-5.077.474a.579.579 0 0 0-.326.214c-.057.064-.109.119-.119.119s-.017-.055-.014-.121c0-.067-.012-.133-.026-.148-.045-.045-.402-.038-.431.007-.014.021-.024.457-.024 1.064 0 .993.002 1.031.045 1.055.067.033.462.031.497-.005.021-.021.029-.205.029-.674v-.643l.09-.119c.138-.181.229-.233.374-.217.257.033.236.04.255-.105.024-.157.002-.374-.036-.398-.045-.029-.238-.045-.314-.031zm1.535-.007c-.636.045-1 .471-1 1.166 0 .209.057.478.133.628.029.059.112.162.183.228.176.16.345.221.647.238.402.021.69-.076.907-.307.205-.219.312-.583.286-.971-.033-.476-.243-.8-.593-.919a2.05 2.05 0 0 0-.564-.064zm.223.462c.126.031.219.114.286.257.043.093.05.155.05.407 0 .271-.005.309-.062.431-.081.169-.183.238-.386.252-.25.019-.426-.11-.497-.359a1.485 1.485 0 0 1 .026-.686c.102-.264.309-.371.583-.302zm1.952-.453c-.269.024-.495.159-.593.355a.528.528 0 0 0-.06.29c.002.307.126.469.471.614.378.16.436.193.469.269.036.088.01.2-.059.259-.121.1-.426.074-.683-.057-.188-.095-.209-.081-.209.145 0 .202.031.243.248.317.219.076.64.076.836 0a.685.685 0 0 0 .376-.324c.052-.1.062-.152.064-.3 0-.345-.143-.495-.655-.693-.214-.081-.333-.174-.333-.259 0-.062.043-.145.093-.183.105-.076.367-.055.609.052.157.071.179.052.179-.157 0-.145-.007-.167-.062-.209-.119-.093-.412-.143-.69-.119zm3.345.034c-.357.131-.567.383-.652.79-.086.397-.01.843.186 1.107.069.093.267.221.421.274.198.067.712.062.95-.01.276-.083.288-.095.288-.305 0-.202-.026-.229-.174-.167-.219.09-.605.133-.776.083a.46.46 0 0 1-.34-.428l-.007-.107.652-.007c.581-.005.659-.01.7-.048.04-.036.045-.067.036-.302a1.285 1.285 0 0 0-.062-.393.81.81 0 0 0-.528-.486c-.157-.048-.569-.048-.693-.002zm.559.414c.095.052.181.221.181.352v.102h-.857l.014-.067c.057-.262.145-.393.29-.424a.988.988 0 0 0 .088-.021c.045-.017.214.017.283.057zm8.298-.393c-.105.036-.25.131-.352.226a.5.5 0 0 1-.09.074c-.005 0-.01-.057-.01-.126s-.012-.138-.029-.155c-.031-.031-.229-.038-.276-.01-.024.017-.029.248-.024 1.078l.007 1.057h.333l.012-.745.012-.747.169-.162c.136-.129.193-.167.288-.188a.405.405 0 0 1 .507.286c.024.074.036.312.045.831l.014.726.071.012c.04.007.114.007.167 0l.095-.012.007-.736c.002-.421-.005-.793-.019-.866-.05-.269-.202-.464-.424-.538a.984.984 0 0 0-.505-.005zm1.993.024c-.293.088-.395.188-.364.355.01.05.031.088.048.088.019 0 .112-.038.207-.083.405-.19.764-.157.883.083a.922.922 0 0 1 .057.257l.017.171h-.193c-.545 0-.928.14-1.054.386a.83.83 0 0 0-.048.486c.038.138.188.3.34.367a.949.949 0 0 0 .664-.005c.071-.033.169-.093.217-.136.048-.04.09-.074.098-.074s.017.05.021.112l.007.114h.286l.007-.786c.007-.893-.007-1.005-.15-1.174-.129-.148-.283-.202-.595-.212-.221-.005-.29.002-.448.05zm.835 1.357.007.212-.109.102c-.152.148-.271.202-.44.202-.243.002-.381-.121-.381-.338 0-.276.24-.405.738-.393l.179.002.007.212z"/></symbol></defs></svg>