<svg xmlns="http://www.w3.org/2000/svg" aria-hidden="true" style="width:0;height:0;position:absolute;overflow:hidden"><defs><symbol id="burger" viewBox="0 0 34 32"><path d="M0 10.133c0-.589.478-1.067 1.067-1.067h32a1.067 1.067 0 0 1 0 2.134h-32A1.067 1.067 0 0 1 0 10.133zm0 11.734c0-.589.478-1.067 1.067-1.067h32a1.067 1.067 0 0 1 0 2.134h-32A1.067 1.067 0 0 1 0 21.867z"/></symbol><symbol id="close" viewBox="0 0 34 32"><path d="M4.168 28.745a1.065 1.065 0 0 1 0-1.508L28.304 3.101a1.065 1.065 0 1 1 1.508 1.508L5.676 28.745a1.065 1.065 0 0 1-1.508 0z"/><path d="M29.812 28.745a1.065 1.065 0 0 0 0-1.508L5.676 3.101a1.065 1.065 0 1 0-1.508 1.508l24.136 24.136a1.065 1.065 0 0 0 1.508 0z"/></symbol></defs></svg>