<svg xmlns="http://www.w3.org/2000/svg" aria-hidden="true" style="width:0;height:0;position:absolute;overflow:hidden"><defs><symbol id="moj_dum" viewBox="0 0 29 32"><path d="m14.368.519 11.563 5.834v15.374L14.554 25.77l-.179.086-11.434-4.129V6.354L14.368.52zm-.267.656L3.344 6.71v14.727L14.1 25.233l.002-24.059zm.536 24.057 10.841-3.878V6.709L14.637 1.174v24.058zm2.456-20.427 5.981 3.238v12.842l-5.981 1.913V4.804zm-4.633.02v8.924H8.928V6.364l3.532-1.539zM9.194 6.546v6.928h3V5.239l-3 1.307zm8.165-1.287v17.167l5.449-1.743V8.21l-5.449-2.95zM8.378 6.73v7.018H5.255V8.321l3.123-1.592zM5.52 8.493v4.981h2.591V7.173L5.52 8.493zm-.266 5.965h3.123v6.798L5.254 20.18v-5.722zm.266.275v5.249l2.591.893v-6.141H5.52zm3.408-.275h3.532v8.056l-3.532-1.065v-6.991zm.266.275v6.51l3 .904v-7.415h-3zm12.25-.275h.952v.275h-.952v-.275zm-7.776 16.326v-2.321h.337v.363h.03a.584.584 0 0 1 .229-.289.672.672 0 0 1 .38-.104.64.64 0 0 1 .374.104.671.671 0 0 1 .235.289h.024a.675.675 0 0 1 .262-.286.78.78 0 0 1 .419-.107c.203 0 .369.065.499.195s.194.33.194.603v1.554h-.349v-1.554c0-.171-.046-.294-.138-.367s-.2-.11-.324-.11c-.16 0-.284.049-.371.148s-.132.222-.132.372v1.511h-.355v-1.59a.423.423 0 0 0-.45-.441c-.091 0-.176.025-.254.074s-.141.118-.189.206a.623.623 0 0 0-.071.301v1.451h-.349zm4.826-.949v-1.372h.349v2.321h-.349v-.393h-.024a.704.704 0 0 1-.675.423.754.754 0 0 1-.379-.095c-.11-.064-.197-.161-.26-.29s-.095-.294-.095-.491v-1.475h.349v1.451c0 .169.046.304.139.405s.213.151.358.151c.087 0 .175-.023.265-.068s.167-.115.228-.209a.637.637 0 0 0 .093-.358zm-.539-1.632c-.101 0-.192-.023-.274-.068s-.145-.107-.194-.184a.522.522 0 0 1 .194-.721c.082-.048.173-.073.274-.073s.191.024.271.073a.523.523 0 0 1 .191.194.52.52 0 0 1-.191.711.545.545 0 0 1-.271.068zm0-.23c.083 0 .151-.029.204-.088s.08-.124.08-.196a.3.3 0 0 0-.08-.204c-.053-.061-.121-.092-.204-.092s-.151.031-.204.092a.3.3 0 0 0-.08.204c0 .073.027.138.08.196s.121.088.204.088zm1.3.489h.349v2.49a.873.873 0 0 1-.073.372c-.047.105-.119.186-.216.243s-.216.086-.363.086h-.071v-.332h.066c.107 0 .184-.032.234-.097a.436.436 0 0 0 .074-.272v-2.49zm.172-.386a.246.246 0 0 1-.249-.242.23.23 0 0 1 .073-.171c.049-.047.108-.071.176-.071s.126.024.175.071c.049.047.074.104.074.171s-.025.123-.074.171a.242.242 0 0 1-.175.071zm2.235 2.708h-.935v-3.095h.976c.294 0 .545.062.755.186.209.123.369.3.481.53.111.23.167.505.167.825 0 .322-.056.6-.169.833-.112.232-.276.41-.491.535s-.476.186-.784.186zm-.568-.333h.544c.251 0 .458-.049.623-.148s.288-.239.368-.422c.081-.182.121-.399.121-.651 0-.25-.04-.465-.12-.645a.9.9 0 0 0-.358-.417 1.112 1.112 0 0 0-.593-.147h-.586v2.43zm3.785-.616v-1.372h.349v2.321h-.349v-.393h-.024a.704.704 0 0 1-.675.423.754.754 0 0 1-.379-.095c-.11-.064-.197-.161-.26-.29s-.095-.294-.095-.491v-1.475h.349v1.451c0 .169.046.304.139.405s.213.151.358.151c.087 0 .175-.023.265-.068s.167-.115.228-.209a.637.637 0 0 0 .093-.358zm-.539-1.632c-.101 0-.192-.023-.274-.068s-.145-.107-.194-.184a.522.522 0 0 1 .194-.721c.081-.049.173-.073.274-.073s.191.024.271.073a.53.53 0 0 1 .262.46.511.511 0 0 1-.262.445.543.543 0 0 1-.271.068zm0-.23c.083 0 .151-.029.204-.088s.08-.124.08-.196a.3.3 0 0 0-.08-.204c-.053-.061-.121-.092-.204-.092s-.151.031-.204.092a.3.3 0 0 0-.08.204c0 .073.027.138.08.196s.121.088.204.088zm1.225 2.811v-2.321h.337v.363h.03a.584.584 0 0 1 .229-.289.67.67 0 0 1 .38-.104.64.64 0 0 1 .374.104.671.671 0 0 1 .235.289h.024a.669.669 0 0 1 .262-.286.78.78 0 0 1 .419-.107c.203 0 .369.065.499.195s.194.33.194.603v1.554h-.349v-1.554c0-.171-.046-.294-.138-.367s-.2-.11-.324-.11c-.16 0-.284.049-.371.148s-.132.222-.132.372v1.511h-.355v-1.59a.423.423 0 0 0-.45-.441.47.47 0 0 0-.254.074.546.546 0 0 0-.189.206.623.623 0 0 0-.071.301v1.451h-.349zm-14.627-3.333c-.066.027-.056.051.098.268.341.48.295.434.446.451.222.029.356.002.432-.088.127-.149.412-.583.397-.605-.022-.039-.159-.056-.293-.039-.124.015-.132.02-.234.166-.2.29-.163.283-.324.054-.122-.178-.149-.202-.229-.217a.587.587 0 0 0-.293.01zm-10.289.293-.056.051v1.433c0 1.287.005 1.436.039 1.451.073.027.463.015.505-.017.037-.024.041-.093.046-.517l.007-.488.317-.017c.493-.024.768-.149.961-.436.119-.18.161-.341.159-.622-.002-.18-.015-.244-.063-.354a.735.735 0 0 0-.334-.371c-.241-.132-.312-.144-.941-.156-.571-.012-.588-.01-.639.041zm1.022.441a.388.388 0 0 1 .312.315c.059.241-.034.502-.212.612-.078.049-.134.059-.341.066l-.251.01v-.497c0-.276.007-.507.017-.514.024-.027.334-.02.476.01zm7.574-.244c-.037.02-.044.063-.044.278v.256h-.144c-.08 0-.151.01-.159.022-.034.054-.041.241-.017.339l.029.102h.29v.553c0 .307.012.627.024.714a.62.62 0 0 0 .278.451c.112.068.134.073.366.073.261 0 .388-.034.429-.112.032-.056.032-.38 0-.4a.53.53 0 0 0-.166.015c-.117.024-.154.024-.212-.005-.115-.056-.132-.141-.132-.748l-.002-.541h.244c.283 0 .293-.007.293-.241 0-.227.007-.222-.283-.222h-.254v-.256c0-.227-.005-.256-.046-.28-.061-.032-.441-.032-.495.002zm-5.201.485c-.124.027-.224.093-.334.219-.059.066-.112.122-.122.122s-.017-.056-.015-.124c0-.068-.012-.137-.027-.151-.046-.046-.412-.039-.441.007-.015.022-.024.468-.024 1.09 0 1.017.002 1.056.046 1.08.068.034.473.032.51-.005.022-.022.029-.21.029-.69v-.658l.093-.122c.141-.185.234-.239.383-.222.263.034.241.041.261-.107.024-.161.002-.383-.037-.407-.046-.029-.244-.046-.322-.032zm1.572-.007c-.651.046-1.024.483-1.024 1.195 0 .215.059.49.137.644.029.061.115.166.188.234.18.163.354.227.663.244.412.022.707-.078.929-.314.21-.224.319-.597.293-.995-.034-.488-.249-.819-.607-.941a2.108 2.108 0 0 0-.578-.066zm.229.473c.129.032.224.117.293.263.044.095.051.159.051.417 0 .278-.005.317-.063.441-.083.173-.188.244-.395.258-.256.019-.436-.112-.51-.368a1.512 1.512 0 0 1 .027-.702c.105-.271.317-.38.597-.31zm2-.463c-.276.024-.507.163-.607.363a.542.542 0 0 0-.061.297c.002.315.129.48.483.629.388.163.446.197.48.276.037.09.01.205-.061.266-.124.102-.436.076-.7-.058-.193-.098-.215-.083-.215.149 0 .207.032.249.254.324.224.078.656.078.856 0a.702.702 0 0 0 .385-.332c.054-.102.063-.156.066-.307 0-.354-.146-.507-.671-.709-.219-.083-.341-.178-.341-.266 0-.063.044-.149.095-.188.107-.078.376-.056.624.054.161.073.183.054.183-.161 0-.149-.007-.171-.063-.215-.122-.095-.422-.146-.707-.122zm3.427.034c-.366.134-.58.392-.668.809-.088.407-.01.863.19 1.134.071.095.273.227.432.28.202.068.729.063.973-.01.283-.085.295-.098.295-.312 0-.207-.027-.234-.178-.171-.224.093-.619.137-.795.085a.473.473 0 0 1-.349-.439l-.007-.11.668-.007c.595-.005.675-.01.717-.049.041-.037.046-.068.037-.31a1.331 1.331 0 0 0-.063-.402.825.825 0 0 0-.541-.497c-.161-.049-.583-.049-.71-.002zm.573.424c.098.054.185.227.185.361v.105h-.878l.015-.068c.059-.268.149-.402.297-.434a.689.689 0 0 0 .09-.022c.046-.017.219.017.29.059z"/></symbol></defs></svg>