<svg xmlns="http://www.w3.org/2000/svg" width="292" height="42" fill="none"><path fill="#231D21" d="M131.233.286c-.835.34-.711.65 1.238 3.403 4.331 6.095 3.743 5.507 5.661 5.723 2.815.372 4.517.031 5.476-1.113 1.609-1.887 5.228-7.394 5.043-7.673-.279-.495-2.011-.711-3.713-.495-1.578.186-1.67.248-2.97 2.104-2.537 3.682-2.073 3.589-4.114.68-1.547-2.258-1.888-2.567-2.908-2.753-1.547-.247-2.847-.216-3.713.124Zm82.076.681c-.093.216-.124 9.374-.093 20.356l.093 19.954h4.331l.093-7.517c.031-4.115.186-7.487.309-7.487.124 0 2.537 3.094 5.383 6.899 2.847 3.774 5.445 7.177 5.816 7.58.588.65.898.711 3.032.618 1.857-.062 2.382-.185 2.475-.588.031-.247-2.506-3.867-5.661-7.981l-5.785-7.549 5.135-5.135c6.064-6.126 6.373-6.838 2.846-6.838-2.011 0-2.97.495-4.671 2.444-4.084 4.672-8.353 9.312-8.57 9.312-.123 0-.278-5.475-.309-12.158L217.64.75l-2.104-.093c-1.485-.062-2.134.031-2.227.31Zm-28.648 2.289c-6.002 1.3-9.745 4.64-11.787 10.519-1.64 4.795-1.701 12.374-.093 17.603 2.166 7.115 7.116 10.487 15.314 10.456 8.755 0 14.324-4.207 16.613-12.498.774-2.846.805-11.942 0-14.819-1.701-6.342-5.476-10.054-11.416-11.26-2.877-.589-5.878-.589-8.631 0Zm8.941 4.764c1.021.434 2.165 1.3 3.124 2.352 2.444 2.66 3.434 6.125 3.434 11.972 0 9.838-4.114 15.128-11.756 15.128-5.692-.03-8.909-2.32-10.549-7.486-.928-2.878-1.176-9.87-.464-13.025 1.176-5.321 3.867-8.477 8.136-9.56 2.011-.494 6.219-.185 8.075.62ZM.712 3.999 0 4.649v18.19c0 16.335.062 18.222.495 18.407.928.34 5.878.186 6.404-.216.464-.31.526-1.176.588-6.559l.093-6.187 4.021-.217c6.25-.309 9.745-1.887 12.19-5.537 1.515-2.29 2.041-4.332 2.01-7.89-.03-2.289-.185-3.093-.804-4.485-1.02-2.227-2.32-3.682-4.238-4.702-3.063-1.671-3.96-1.826-11.942-1.98-7.24-.155-7.456-.124-8.105.526Zm12.962 5.6c2.104.463 3.434 1.793 3.96 3.99.742 3.063-.433 6.373-2.691 7.765-.99.619-1.702.743-4.332.835l-3.186.124v-6.311c0-3.496.093-6.435.216-6.528.31-.34 4.239-.247 6.033.124Zm96.09-3.094c-.464.247-.556.804-.556 3.526v3.249h-1.826c-1.021 0-1.918.123-2.011.278-.433.68-.526 3.063-.216 4.3l.371 1.3h3.682v7.022c0 3.898.154 7.951.309 9.065.433 2.63 1.609 4.517 3.527 5.723 1.423.866 1.701.928 4.64.928 3.31 0 4.919-.433 5.445-1.423.402-.711.402-4.826 0-5.073-.155-.093-1.114 0-2.104.185-1.485.31-1.949.31-2.691-.062-1.454-.711-1.671-1.794-1.671-9.497l-.031-6.868h3.094c3.589 0 3.713-.093 3.713-3.063 0-2.877.092-2.815-3.589-2.815h-3.218v-3.25c0-2.877-.061-3.248-.587-3.557-.774-.403-5.6-.403-6.281.03Zm-65.987 6.156c-1.578.34-2.846 1.176-4.239 2.784-.742.836-1.423 1.547-1.546 1.547-.124 0-.217-.711-.186-1.578 0-.866-.155-1.732-.34-1.918-.588-.588-5.229-.495-5.6.093-.186.278-.31 5.94-.31 13.829 0 12.9.032 13.396.588 13.705.867.433 6.002.402 6.466-.062.279-.278.371-2.66.371-8.755v-8.353l1.176-1.547c1.794-2.351 2.97-3.032 4.857-2.815 3.341.433 3.063.526 3.31-1.361.31-2.042.031-4.857-.464-5.167-.587-.371-3.093-.588-4.083-.402Zm19.953-.093c-8.26.588-12.994 6.126-12.994 15.16 0 2.722.743 6.218 1.733 8.166.371.774 1.454 2.104 2.382 2.97 2.29 2.073 4.486 2.878 8.415 3.094 5.228.279 8.971-.99 11.787-3.99 2.66-2.847 4.052-7.58 3.712-12.623-.433-6.187-3.155-10.395-7.703-11.942-1.547-.526-5.445-.959-7.332-.835Zm2.908 6.002c1.64.402 2.846 1.485 3.712 3.341.557 1.207.65 2.011.65 5.29 0 3.527-.062 4.022-.804 5.6-1.052 2.196-2.382 3.093-5.012 3.28-3.248.247-5.538-1.424-6.466-4.672-.619-2.166-.433-6.868.34-8.91 1.33-3.434 4.022-4.826 7.58-3.93Zm25.364-5.878c-3.495.31-6.434 2.073-7.703 4.61-.619 1.206-.773 1.98-.773 3.774.03 3.99 1.64 6.094 6.125 7.982 4.92 2.072 5.662 2.505 6.095 3.495.464 1.145.124 2.6-.774 3.373-1.577 1.299-5.537.959-8.878-.743-2.444-1.237-2.723-1.052-2.723 1.887 0 2.63.402 3.156 3.218 4.115 2.846.99 8.322.99 10.858 0 2.259-.897 3.867-2.259 4.888-4.208.681-1.299.805-1.98.836-3.898 0-4.486-1.857-6.435-8.508-9.002-2.784-1.052-4.331-2.259-4.331-3.372 0-.805.557-1.888 1.206-2.383 1.362-.99 4.765-.711 7.92.681 2.042.928 2.321.68 2.321-2.042 0-1.887-.093-2.165-.805-2.722-1.547-1.207-5.352-1.857-8.972-1.547Zm43.468.433c-4.64 1.701-7.363 4.98-8.476 10.27-1.114 5.167-.124 10.952 2.413 14.387.897 1.206 3.465 2.877 5.476 3.557 2.567.867 9.25.805 12.343-.123 3.589-1.083 3.744-1.238 3.744-3.96 0-2.63-.341-2.97-2.259-2.166-2.846 1.176-7.858 1.732-10.085 1.083-2.568-.743-4.207-2.785-4.424-5.569l-.093-1.392 8.477-.093c7.548-.062 8.569-.124 9.095-.619.526-.464.588-.866.464-3.929-.123-2.444-.34-3.867-.804-5.104-1.207-3.094-3.682-5.352-6.868-6.311-2.042-.619-7.394-.619-9.003-.031Zm7.271 5.383c1.237.68 2.351 2.877 2.351 4.579v1.33h-11.138l.186-.867c.743-3.402 1.887-5.104 3.774-5.506.464-.093.99-.217 1.145-.279.588-.216 2.784.217 3.682.743Zm107.847-5.105c-1.361.464-3.248 1.702-4.578 2.94-.557.525-1.083.959-1.176.959-.062 0-.124-.743-.124-1.64 0-.897-.154-1.795-.371-2.011-.402-.402-2.97-.495-3.589-.124-.309.217-.371 3.218-.309 14.015l.093 13.736h4.331l.155-9.684.154-9.714 2.197-2.104c1.763-1.67 2.506-2.165 3.743-2.444 3.032-.742 5.662.743 6.59 3.713.309.959.464 4.053.588 10.797l.185 9.436.928.154c.526.093 1.485.093 2.166 0l1.237-.154.093-9.56c.031-5.476-.062-10.302-.247-11.261-.65-3.496-2.63-6.033-5.507-6.992-1.671-.588-5.043-.618-6.559-.062Zm25.894.31c-3.806 1.144-5.136 2.444-4.734 4.61.124.649.403 1.144.619 1.144.248 0 1.454-.495 2.692-1.083 5.259-2.475 9.93-2.042 11.477 1.083.31.619.619 2.104.743 3.341l.216 2.228h-2.506c-7.084 0-12.065 1.825-13.705 5.011-.804 1.578-1.083 4.548-.618 6.311.495 1.795 2.444 3.899 4.424 4.765 2.382 1.02 6.28.99 8.631-.062.928-.433 2.196-1.207 2.815-1.764.619-.525 1.176-.959 1.269-.959.092 0 .216.65.278 1.454l.093 1.485h3.712l.093-10.209c.093-11.601-.093-13.055-1.949-15.252-1.671-1.918-3.681-2.63-7.734-2.753-2.877-.062-3.774.031-5.816.65Zm10.859 17.634.092 2.753-1.423 1.33c-1.98 1.919-3.527 2.63-5.723 2.63-3.156.031-4.95-1.578-4.95-4.393 0-3.589 3.125-5.26 9.59-5.105l2.321.031.093 2.754Z"/></svg>