<svg xmlns="http://www.w3.org/2000/svg" aria-hidden="true" style="width:0;height:0;position:absolute;overflow:hidden"><defs><symbol id="dvere" viewBox="0 0 26 32"><path d="M11.392 27.648c-.066.027-.056.051.097.267.339.478.293.432.444.449.221.029.354.002.429-.087.126-.148.41-.579.395-.601-.022-.039-.158-.056-.291-.039-.124.015-.131.019-.233.165-.199.289-.162.281-.322.053-.121-.177-.148-.201-.228-.216a.59.59 0 0 0-.291.01zm-10.23.291-.056.051v1.426c0 1.28.005 1.428.039 1.443.073.027.461.014.502-.017.036-.024.041-.092.046-.514l.007-.485.315-.017c.49-.024.764-.148.955-.434.119-.179.16-.34.158-.619-.002-.179-.014-.242-.063-.351a.731.731 0 0 0-.332-.369c-.24-.131-.31-.143-.936-.155-.568-.012-.584-.01-.635.041zm1.016.438a.386.386 0 0 1 .31.313c.058.24-.034.5-.211.609-.077.049-.133.058-.339.065l-.25.01v-.495c0-.274.007-.504.017-.512.024-.027.332-.019.473.01zm7.531-.242c-.036.019-.044.063-.044.276v.255h-.143c-.08 0-.15.01-.158.022-.034.053-.041.24-.017.337l.029.102h.288v.551c0 .306.012.623.024.71.034.206.126.354.276.449.112.068.133.073.364.073.26 0 .386-.034.427-.112.031-.056.031-.378 0-.398a.543.543 0 0 0-.165.014c-.116.024-.153.024-.211-.005-.114-.056-.131-.141-.131-.744l-.003-.538h.243c.281 0 .291-.007.291-.24 0-.226.007-.221-.281-.221h-.252v-.255c0-.225-.005-.254-.046-.279-.061-.032-.439-.032-.492.002zm-5.172.482a.592.592 0 0 0-.332.218c-.058.066-.112.121-.121.121s-.017-.056-.015-.124c0-.068-.012-.136-.027-.15-.046-.046-.41-.039-.439.007-.015.022-.024.466-.024 1.084 0 1.011.002 1.05.046 1.074.068.034.47.032.507-.005.022-.022.029-.209.029-.686v-.655l.092-.121c.141-.184.233-.238.381-.221.262.034.24.041.259-.107.024-.16.002-.381-.036-.405-.046-.029-.243-.046-.32-.032zm1.564-.007c-.647.046-1.019.48-1.019 1.188 0 .213.058.487.136.64a.993.993 0 0 0 .187.233c.179.163.352.226.66.243.41.022.703-.078.924-.313.209-.223.318-.594.291-.989-.034-.485-.247-.815-.604-.936a2.125 2.125 0 0 0-.575-.066zm.228.471c.129.031.223.116.291.262.044.094.051.158.051.415 0 .276-.005.315-.063.439-.083.172-.187.242-.393.257-.255.019-.434-.111-.507-.366a1.495 1.495 0 0 1 .027-.698c.104-.269.315-.378.594-.308zm1.989-.461c-.274.024-.504.162-.604.361a.536.536 0 0 0-.061.296c.002.313.129.478.48.626.386.162.444.196.478.274.036.09.01.204-.061.264-.124.102-.434.075-.696-.058-.192-.097-.213-.082-.213.148 0 .206.031.247.252.323.223.078.652.078.851 0a.698.698 0 0 0 .383-.33c.053-.102.063-.155.065-.306 0-.352-.145-.504-.667-.706-.218-.082-.339-.177-.339-.264a.27.27 0 0 1 .095-.187c.107-.078.373-.056.621.053.16.073.182.053.182-.16 0-.148-.007-.17-.063-.213-.121-.094-.419-.145-.703-.121zm3.406.034c-.364.133-.577.39-.664.805-.087.405-.01.858.189 1.128.07.095.271.226.429.279.201.068.725.063.968-.01.281-.085.293-.097.293-.31 0-.206-.027-.233-.177-.17-.223.092-.616.136-.79.085a.47.47 0 0 1-.347-.436l-.007-.109.664-.007c.592-.005.672-.01.713-.049.041-.036.046-.068.036-.308a1.321 1.321 0 0 0-.063-.4.83.83 0 0 0-.538-.495c-.16-.049-.579-.049-.705-.002zm.57.422c.097.053.184.226.184.359v.104h-.873l.015-.068c.058-.267.148-.4.296-.432a.885.885 0 0 0 .095-.023l-.006.002c.046-.017.218.017.289.058zm2.803 1.861h-.948a.018.018 0 0 1-.017-.017v-3.094c0-.009.008-.017.017-.017h.991c.303 0 .563.063.779.188.216.124.381.303.496.536.115.232.173.51.173.834 0 .326-.058.606-.174.842a1.246 1.246 0 0 1-.507.541 1.627 1.627 0 0 1-.809.188zm-.586-.354c0 .009.008.017.017.017h.545c.259 0 .473-.05.643-.15s.297-.242.38-.426c.084-.184.125-.404.125-.658 0-.253-.041-.47-.124-.652a.914.914 0 0 0-.37-.422 1.166 1.166 0 0 0-.612-.148h-.588a.018.018 0 0 0-.017.017v2.421zm4.463-1.992c.009 0 .017.008.017.017l-.001.006-.855 2.312a.017.017 0 0 1-.016.011h-.343a.018.018 0 0 1-.016-.011l-.855-2.312-.001-.006c0-.009.008-.017.017-.017h.354c.007 0 .014.005.016.011l.64 1.846a.017.017 0 0 0 .016.012.018.018 0 0 0 .016-.011l.639-1.846a.017.017 0 0 1 .016-.012h.354zm1.29 2.394c-.226 0-.421-.05-.585-.15a1 1 0 0 1-.377-.421c-.088-.181-.131-.392-.131-.632s.044-.452.131-.636c.089-.184.212-.328.37-.431a.992.992 0 0 1 .556-.156c.122 0 .243.02.362.061a.914.914 0 0 1 .326.199c.098.09.176.211.234.36s.087.334.087.553v.135c0 .01-.008.017-.017.017h-1.774a.018.018 0 0 1-.017-.017v-.277c0-.009.008-.017.017-.017h1.407a.018.018 0 0 0 .017-.017.767.767 0 0 0-.079-.337.607.607 0 0 0-.22-.245l-.003-.001a.626.626 0 0 0-.339-.09.65.65 0 0 0-.373.107.706.706 0 0 0-.238.271l-.002.004a.794.794 0 0 0-.084.358v.214a1 1 0 0 0 .092.451.667.667 0 0 0 .258.28c.11.063.238.095.383.095a.77.77 0 0 0 .257-.04.545.545 0 0 0 .2-.122.545.545 0 0 0 .124-.19.017.017 0 0 1 .016-.011l.005.001.316.089c.007.002.013.009.013.016l-.001.006a.765.765 0 0 1-.18.295.905.905 0 0 1-.321.208c-.127.049-.27.073-.429.073zm3.871 0c-.226 0-.421-.05-.585-.15a1 1 0 0 1-.377-.421c-.088-.181-.131-.392-.131-.632s.044-.452.131-.636c.089-.184.212-.328.37-.431a.992.992 0 0 1 .556-.156c.122 0 .243.02.362.061a.914.914 0 0 1 .326.199c.098.09.176.211.234.36s.087.334.087.553v.135c0 .01-.008.017-.017.017h-1.774a.018.018 0 0 1-.017-.017v-.277c0-.009.008-.017.017-.017h1.407a.018.018 0 0 0 .017-.017.767.767 0 0 0-.079-.337.607.607 0 0 0-.22-.245l-.003-.001a.626.626 0 0 0-.339-.09.652.652 0 0 0-.373.107.706.706 0 0 0-.238.271l-.002.004a.798.798 0 0 0-.084.359v.213a1 1 0 0 0 .092.451.667.667 0 0 0 .258.28c.11.063.238.095.383.095a.77.77 0 0 0 .257-.04.542.542 0 0 0 .2-.122.56.56 0 0 0 .124-.19.017.017 0 0 1 .016-.011l.005.001.316.089c.007.002.013.009.013.016l-.001.006a.765.765 0 0 1-.18.295.896.896 0 0 1-.321.208c-.127.049-.27.073-.429.073zm-2.386-.048a.018.018 0 0 1-.017-.017v-2.312c0-.009.008-.017.017-.017h.314c.009 0 .017.008.017.017v.323c0 .008.006.014.014.014.006 0 .011-.004.014-.009a.563.563 0 0 1 .228-.273.675.675 0 0 1 .369-.108h.01l.099.002.075.003a.016.016 0 0 1 .015.017v.329c0 .01-.008.018-.018.018h-.003a.721.721 0 0 0-.051-.008l-.012-.001a.786.786 0 0 0-.133-.011h-.003a.64.64 0 0 0-.306.072.548.548 0 0 0-.209.193l-.001.002a.525.525 0 0 0-.076.282v1.467a.018.018 0 0 1-.017.017h-.326zm.213-3.287c.006 0 .011.003.014.007l.299.402a.017.017 0 0 0 .028 0l.299-.402a.017.017 0 0 1 .014-.007h.316c.009 0 .017.008.017.017v.001a.015.015 0 0 1-.004.011l-.486.624a.017.017 0 0 1-.014.007h-.313a.02.02 0 0 1-.013-.006l-.486-.624a.021.021 0 0 1-.004-.011v-.001c0-.009.008-.017.017-.017h.316zm2.043-26.417a94.47 94.47 0 0 0-.558.153c-.609.17-3.562.999-4.401 1.237l-1.164.327-2.413.679c-.347.097-1.001.281-1.455.41-1.695.475-2.1.592-2.112.604a3.188 3.188 0 0 0-.027.378c-.012.33-.01.366.024.366.041 0 .526-.121 2.163-.543l2.958-.757c.507-.129 1.188-.303 1.516-.385.327-.085.965-.248 1.419-.364l2.604-.664c.259-.068.48-.116.492-.109.01.007.019 5.085.019 11.288 0 10.499-.002 11.273-.041 11.273-.022 0-.356-.082-.744-.179 10.195 2.236 8.966 1.913 7.737 1.592l-11.401-2.528-3.395-.863c-2.488-.635-3.283-.834-3.32-.834s-.039.041-.034.381l.007.378.194.053c.179.049.366.102 1.334.373.439.121 1.773.495 2.534.706 1.765.492 2.98.829 3.795 1.06.213.061.48.133.594.165s.485.133.824.228c.339.097.929.259 1.309.366l1.128.315c.24.065.451.121.468.121.022 0 .029-2.536.029-12.607 0-6.935-.007-12.614-.017-12.619a.152.152 0 0 0-.068 0z"/><path d="M11.881 6.351v14.937l-9.585 2.138V4.222l9.585 2.128zm.43 15.282V6.006L1.94 3.703l-.013-.001a.06.06 0 0 0-.061.061v20.123c0 .039.036.068.075.06l10.371-2.313z"/><path d="M2.788 13.923c0-.054.028-.098.061-.098h1.72c.034 0 .061.044.061.098v.295c0 .054-.028.098-.061.098h-1.72c-.034 0-.061-.044-.061-.098v-.295z"/></symbol></defs></svg>