<svg id="logo-window4u" xmlns="http://www.w3.org/2000/svg" width="144.315" height="42.23" viewBox="0 0 144.315 42.23">
  <g id="Group_4740" data-name="Group 4740">
    <path id="Path_7789" data-name="Path 7789" d="M378.453,3.808c3.752,3.673,3.808,9.118,3.808,17.307s-.056,13.634-3.808,17.307c-3.674,3.752-9.134,3.808-17.307,3.808s-13.634-.055-17.307-3.808c-3.752-3.674-3.808-9.123-3.808-17.307s.055-13.634,3.808-17.307C347.513.056,352.98,0,361.146,0s13.634.056,17.307,3.808" transform="translate(-237.947 0)" fill="#00aeef"/>
    <path id="Path_7790" data-name="Path 7790" d="M419.477,58.691v6.451a1.728,1.728,0,0,0,.539,1.312,2.531,2.531,0,0,0,1.644.387h2.6q2.155,0,2.155-1.644V58.691h2.431v7.1q0,3.287-3.812,3.287h-4.172q-3.813,0-3.813-3.287v-7.1Z" transform="translate(-291.84 -41.071)" fill="#fff"/>
    <path id="Path_7791" data-name="Path 7791" d="M372.2,47.373V55.26H365.3l5.442-7.887h-2.97l-5.178,7.475v0a1.452,1.452,0,0,0,.684,2.206.719.719,0,0,0,.113.042c.031.009.066.015.1.023h0a4.856,4.856,0,0,0,1.158.124H372.2l0,.277v.737H372.2l-.02,2.9h2.749V47.373Z" transform="translate(-253.545 -33.151)" fill="#fff"/>
    <path id="Path_7792" data-name="Path 7792" d="M20.465,56.113l-3.4,10.442A2.193,2.193,0,0,1,14.793,68.2a2.08,2.08,0,0,1-2.16-1.554L10.178,59,7.832,66.649A2.1,2.1,0,0,1,5.594,68.2a2.163,2.163,0,0,1-2.222-1.647L0,56.113H2.673l3.061,9.323,2.533-7.894A1.932,1.932,0,0,1,10.24,56.02a1.917,1.917,0,0,1,1.974,1.523l2.517,7.894,3.061-9.323Z" transform="translate(0 -39.202)" fill="#222f3b"/>
    <path id="Path_7793" data-name="Path 7793" d="M76.594,59.728H73.859V48.042h2.735Zm0-13.472h-2.61V44.22h2.61Z" transform="translate(-51.685 -30.944)" fill="#222f3b"/>
    <path id="Path_7794" data-name="Path 7794" d="M103.885,68.533V61.121q0-1.787-2.3-1.787H98.54q-2.33,0-2.331,1.787v7.412H93.474V60.422q0-3.573,4.164-3.574h4.817q4.133,0,4.133,3.574v8.111Z" transform="translate(-65.411 -39.781)" fill="#222f3b"/>
    <path id="Path_7795" data-name="Path 7795" d="M161.525,44.064V56.34a2.692,2.692,0,0,1-1.29,2.517,6.038,6.038,0,0,1-3.123.762H152.3q-4.165,0-4.164-3.186V50.839a2.717,2.717,0,0,1,1.111-2.277,4.872,4.872,0,0,1,3.022-.847h6.526V44.064Zm-2.735,12V50.233q0-.482-.668-.482h-5.034q-2.222,0-2.222,1.663V55.92a1.489,1.489,0,0,0,.419,1.212,2.917,2.917,0,0,0,1.8.451h3.31q2.393,0,2.393-1.523" transform="translate(-103.659 -30.835)" fill="#222f3b"/>
    <path id="Path_7796" data-name="Path 7796" d="M216.109,65.747a2.513,2.513,0,0,1-1.336,2.284,5.385,5.385,0,0,1-2.859.606h-4.739a5.578,5.578,0,0,1-3.255-.777,2.466,2.466,0,0,1-1.08-2.113V59.92a2.63,2.63,0,0,1,1.368-2.362,5.8,5.8,0,0,1,2.968-.606h4.739a5.361,5.361,0,0,1,2.89.606,2.588,2.588,0,0,1,1.305,2.362Zm-2.735-.544V60.464a1.269,1.269,0,0,0-.637-1.181,2.8,2.8,0,0,0-1.585-.357H207.9a3.075,3.075,0,0,0-1.663.357,1.256,1.256,0,0,0-.668,1.181v4.708a1.217,1.217,0,0,0,.668,1.135,2.727,2.727,0,0,0,1.461.326h3.636a2.494,2.494,0,0,0,1.4-.326,1.2,1.2,0,0,0,.637-1.1" transform="translate(-141.942 -39.854)" fill="#222f3b"/>
    <path id="Path_7797" data-name="Path 7797" d="M274.958,56.113l-3.4,10.442a2.193,2.193,0,0,1-2.269,1.647,2.08,2.08,0,0,1-2.16-1.554L264.671,59l-2.346,7.645a2.1,2.1,0,0,1-2.238,1.554,2.163,2.163,0,0,1-2.222-1.647l-3.372-10.442h2.673l3.061,9.323,2.533-7.894a2.04,2.04,0,0,1,3.947,0l2.517,7.894,3.061-9.323Z" transform="translate(-178.089 -39.202)" fill="#222f3b"/>
  </g>
</svg>
