<svg xmlns="http://www.w3.org/2000/svg" width="150" height="186" fill="none">
  <path fill="#231D21" d="M66.218 160.702c-.381.155-.325.296.563 1.55 1.973 2.777 1.706 2.509 2.58 2.608 1.282.169 2.057.014 2.494-.508.733-.86 2.382-3.368 2.298-3.495-.127-.226-.916-.324-1.692-.226-.718.085-.76.113-1.353.959-1.156 1.677-.944 1.635-1.874.31-.705-1.029-.86-1.17-1.325-1.255-.705-.112-1.297-.098-1.692.057ZM6.753 162.393l-.324.296v8.287c0 7.442.028 8.302.225 8.387.423.155 2.678.084 2.918-.099.211-.141.24-.536.267-2.988l.043-2.819 1.832-.099c2.847-.141 4.44-.859 5.553-2.522.69-1.043.93-1.974.916-3.595-.014-1.043-.084-1.409-.366-2.043-.465-1.015-1.057-1.678-1.931-2.143-1.395-.761-1.804-.831-5.44-.902-3.299-.07-3.397-.056-3.693.24Zm5.905 2.551c.959.211 1.565.818 1.804 1.818.339 1.396-.197 2.904-1.226 3.538-.45.282-.775.338-1.973.38l-1.452.057v-2.875c0-1.593.043-2.932.099-2.974.14-.155 1.93-.113 2.748.056ZM56.436 163.535c-.211.112-.254.366-.254 1.606v1.48h-.831c-.465 0-.874.057-.916.127-.198.31-.24 1.396-.099 1.959l.17.592h1.676v3.2c0 1.776.071 3.622.142 4.129.197 1.198.732 2.058 1.606 2.608.649.395.775.423 2.114.423 1.509 0 2.241-.198 2.481-.649.183-.324.183-2.198 0-2.311-.07-.042-.507 0-.958.084-.677.141-.888.141-1.227-.028-.662-.324-.76-.817-.76-4.327l-.015-3.129h1.41c1.635 0 1.691-.042 1.691-1.395 0-1.311.042-1.283-1.635-1.283h-1.466v-1.48c0-1.31-.028-1.479-.268-1.62-.352-.184-2.55-.184-2.86.014ZM26.372 166.339c-.718.155-1.296.536-1.93 1.269-.339.381-.649.705-.705.705-.057 0-.099-.324-.085-.719 0-.395-.07-.789-.155-.874-.268-.268-2.382-.226-2.551.042-.085.127-.141 2.706-.141 6.3 0 5.878.014 6.103.268 6.244.394.198 2.734.184 2.945-.028.127-.127.17-1.212.17-3.989v-3.805l.535-.705c.818-1.071 1.353-1.381 2.213-1.282 1.522.197 1.395.239 1.508-.621.141-.93.014-2.212-.211-2.353-.268-.169-1.41-.268-1.86-.184ZM35.463 166.297c-3.763.268-5.92 2.791-5.92 6.906 0 1.241.339 2.833.79 3.721.169.353.662.959 1.085 1.353 1.043.945 2.044 1.311 3.834 1.41 2.382.127 4.087-.451 5.37-1.818 1.212-1.297 1.846-3.453 1.691-5.751-.197-2.819-1.438-4.736-3.51-5.44-.704-.24-2.48-.437-3.34-.381Zm1.325 2.735c.747.183 1.297.676 1.691 1.522.254.549.296.916.296 2.41 0 1.607-.028 1.832-.366 2.551-.48 1.001-1.085 1.409-2.283 1.494-1.48.113-2.523-.648-2.946-2.128-.282-.987-.197-3.129.155-4.059.606-1.565 1.832-2.199 3.453-1.79ZM48.346 166.354c-1.593.141-2.932.944-3.51 2.1-.282.549-.352.902-.352 1.719.014 1.818.747 2.777 2.79 3.637 2.242.944 2.58 1.141 2.777 1.592.212.522.056 1.184-.352 1.537-.72.591-2.523.436-4.045-.339-1.114-.564-1.24-.479-1.24.86 0 1.198.183 1.438 1.465 1.875 1.297.451 3.792.451 4.947 0 1.03-.409 1.762-1.029 2.227-1.917.31-.592.367-.902.38-1.776 0-2.044-.845-2.932-3.875-4.102-1.269-.479-1.973-1.029-1.973-1.536 0-.366.253-.86.55-1.085.62-.451 2.17-.324 3.607.31.93.423 1.058.31 1.058-.93 0-.86-.043-.987-.367-1.241-.705-.549-2.438-.845-4.087-.704ZM68.148 166.551c-2.114.775-3.354 2.269-3.862 4.679-.507 2.354-.056 4.99 1.1 6.554.408.55 1.578 1.311 2.494 1.621 1.17.395 4.215.366 5.624-.056 1.635-.494 1.706-.564 1.706-1.804 0-1.198-.156-1.354-1.03-.987-1.296.536-3.58.789-4.594.493-1.17-.338-1.917-1.268-2.016-2.537l-.042-.634 3.862-.042c3.439-.028 3.904-.057 4.144-.282.24-.212.267-.395.211-1.79-.056-1.114-.155-1.762-.366-2.326-.55-1.409-1.678-2.438-3.13-2.875-.93-.282-3.368-.282-4.1-.014Zm3.312 2.452c.564.31 1.072 1.311 1.072 2.086v.606H67.456l.085-.394c.338-1.551.86-2.326 1.72-2.509.211-.042.45-.099.521-.127.268-.099 1.269.099 1.677.338ZM87.754 179.819h-5.511a.1.1 0 0 1-.1-.1v-17.982a.1.1 0 0 1 .1-.1h5.76c1.763 0 3.272.364 4.527 1.092 1.255.722 2.216 1.761 2.885 3.117.669 1.349 1.003 2.965 1.003 4.847 0 1.894-.337 3.524-1.012 4.892-.674 1.361-1.657 2.408-2.947 3.142-1.29.728-2.859 1.092-4.705 1.092Zm-3.41-2.053a.1.1 0 0 0 .1.1h3.168c1.503 0 2.749-.29 3.737-.87.989-.58 1.725-1.406 2.21-2.477.486-1.071.729-2.347.729-3.826 0-1.468-.24-2.732-.72-3.791-.479-1.065-1.195-1.882-2.148-2.45-.953-.574-2.14-.861-3.56-.861h-3.415a.1.1 0 0 0-.1.1v14.075ZM110.287 166.183a.1.1 0 0 1 .093.135l-4.968 13.436a.1.1 0 0 1-.094.065h-1.991a.1.1 0 0 1-.094-.065l-4.969-13.436a.1.1 0 0 1 .094-.135h2.058a.1.1 0 0 1 .094.067l3.718 10.732a.099.099 0 0 0 .094.067.1.1 0 0 0 .095-.067l3.717-10.732a.1.1 0 0 1 .095-.067h2.058ZM117.785 180.103c-1.314 0-2.447-.29-3.4-.87-.947-.586-1.678-1.402-2.193-2.45-.509-1.053-.764-2.279-.764-3.675 0-1.397.255-2.628.764-3.694.515-1.071 1.231-1.905 2.148-2.503.924-.604 2.001-.906 3.232-.906.71 0 1.412.119 2.104.355a5.217 5.217 0 0 1 1.891 1.155c.568.526 1.021 1.225 1.358 2.095.338.87.506 1.941.506 3.214v.787c0 .056-.044.1-.1.1H113.02a.1.1 0 0 1-.1-.1V172a.1.1 0 0 1 .1-.1h8.181c.055 0 .1-.045.099-.1-.013-.729-.167-1.382-.461-1.959a3.48 3.48 0 0 0-1.296-1.43c-.557-.349-1.213-.524-1.971-.524-.835 0-1.557.208-2.166.622a4.079 4.079 0 0 0-1.394 1.598 4.687 4.687 0 0 0-.488 2.113v1.207c0 1.03.177 1.903.532 2.619.361.71.861 1.252 1.501 1.625.639.367 1.382.55 2.228.55.55 0 1.048-.077 1.491-.231.45-.159.838-.396 1.163-.71.306-.3.547-.668.722-1.104a.102.102 0 0 1 .122-.061l1.836.516a.098.098 0 0 1 .068.126 4.487 4.487 0 0 1-1.043 1.713c-.503.515-1.125.917-1.864 1.207-.74.284-1.572.426-2.495.426ZM140.285 180.103c-1.314 0-2.447-.29-3.4-.87-.947-.586-1.678-1.402-2.193-2.45-.509-1.053-.763-2.279-.763-3.675 0-1.397.254-2.628.763-3.694.515-1.071 1.231-1.905 2.149-2.503.923-.604 2-.906 3.231-.906.71 0 1.412.119 2.104.355a5.209 5.209 0 0 1 1.891 1.155c.568.526 1.021 1.225 1.358 2.095.338.87.506 1.941.506 3.214v.787c0 .056-.044.1-.1.1H135.52a.1.1 0 0 1-.1-.1V172a.1.1 0 0 1 .1-.1h8.181c.055 0 .1-.045.099-.1-.013-.729-.167-1.382-.461-1.959a3.48 3.48 0 0 0-1.296-1.43c-.556-.349-1.213-.524-1.971-.524-.834 0-1.557.208-2.166.622a4.087 4.087 0 0 0-1.394 1.598 4.7 4.7 0 0 0-.488 2.113v1.207c0 1.03.177 1.903.532 2.619.361.71.862 1.252 1.501 1.625.639.367 1.382.55 2.228.55.551 0 1.048-.077 1.492-.231a3.188 3.188 0 0 0 1.163-.71c.305-.3.546-.668.721-1.104a.102.102 0 0 1 .122-.061l1.836.516a.098.098 0 0 1 .068.126 4.487 4.487 0 0 1-1.043 1.713c-.503.515-1.124.917-1.864 1.207-.74.284-1.572.426-2.495.426ZM126.418 179.819a.1.1 0 0 1-.1-.1v-13.436a.1.1 0 0 1 .1-.1h1.824a.1.1 0 0 1 .1.1v1.876c0 .046.037.084.084.084a.085.085 0 0 0 .079-.055c.252-.65.695-1.179 1.328-1.588a3.974 3.974 0 0 1 2.202-.63c.154 0 .346.003.577.009.178.004.323.011.434.019.051.003.09.047.09.098v1.912a.107.107 0 0 1-.126.103 12.716 12.716 0 0 0-.362-.055 4.857 4.857 0 0 0-.79-.062c-.663 0-1.255.139-1.776.417a3.15 3.15 0 0 0-1.225 1.137c-.296.479-.444 1.027-.444 1.642v8.529a.1.1 0 0 1-.1.1h-1.895Zm1.234-19.105a.1.1 0 0 1 .081.041l1.736 2.337a.1.1 0 0 0 .161 0l1.736-2.337a.1.1 0 0 1 .08-.041h1.839a.1.1 0 0 1 .1.1v.008a.097.097 0 0 1-.022.061l-2.825 3.628a.1.1 0 0 1-.079.038h-1.82a.099.099 0 0 1-.078-.038l-2.826-3.628a.102.102 0 0 1-.021-.061v-.008a.1.1 0 0 1 .1-.1h1.838ZM139.527 7.164c-.155.042-1.607.437-3.242.888-3.537.987-20.704 5.807-25.581 7.188-1.903.536-4.947 1.395-6.765 1.903-5.046 1.423-9.98 2.805-14.024 3.946-2.016.564-5.821 1.635-8.457 2.382-9.852 2.763-12.206 3.44-12.276 3.51-.042.042-.113 1.029-.155 2.198-.07 1.917-.056 2.129.14 2.129.24 0 3.06-.705 12.573-3.157 5.173-1.325 6.836-1.748 17.195-4.398 2.946-.747 6.907-1.762 8.809-2.24 1.903-.494 5.61-1.439 8.246-2.115 8.358-2.128 12.318-3.143 15.137-3.862 1.508-.395 2.791-.676 2.861-.634.056.042.113 29.556.113 65.61 0 61.028-.014 65.524-.24 65.524-.127 0-2.072-.479-4.327-1.043a9525.8 9525.8 0 0 0-21.296-5.44c-5.765-1.466-12.925-3.284-19.733-5.018-14.46-3.692-19.084-4.848-19.295-4.848-.211 0-.225.239-.197 2.213l.042 2.198 1.128.31c1.043.282 2.128.592 7.751 2.171 2.552.705 10.304 2.875 14.73 4.102 10.26 2.861 17.321 4.82 22.057 6.159 1.24.352 2.791.775 3.453.958.663.183 2.819.775 4.792 1.325 1.973.564 5.398 1.508 7.611 2.128 2.213.62 5.159 1.438 6.554 1.833 1.396.38 2.622.704 2.72.704.127 0 .17-14.742.17-73.277 0-40.31-.043-73.319-.099-73.347-.071-.028-.24-.028-.395 0Z"/>
  <path fill="#231D21" fill-rule="evenodd" d="M69.06 36.916 13.346 24.545v111.622l55.714-12.428V36.916Zm2.5 88.827V34.91L11.28 21.525a.357.357 0 0 0-.434.349V138.84c0 .229.211.398.434.349l60.28-13.446Z" clip-rule="evenodd"/>
  <path fill="#231D21" d="M16.203 80.928c0-.315.16-.57.357-.57h10c.197 0 .357.255.357.57v1.715c0 .315-.16.571-.357.571h-10c-.197 0-.357-.256-.357-.571v-1.715Z"/>
</svg>
