<svg xmlns="http://www.w3.org/2000/svg" width="318" height="405" fill="none">
  <path fill="black" d="M312.166.566c-.367.1-3.8 1.034-7.667 2.1a31603.38 31603.38 0 0 0-60.5 17c-4.5 1.267-11.699 3.3-15.999 4.5-11.934 3.367-23.6 6.634-33.167 9.334a7281.073 7281.073 0 0 0-20 5.633c-23.3 6.533-28.867 8.133-29.033 8.3-.1.1-.267 2.433-.367 5.2-.167 4.533-.133 5.033.333 5.033.567 0 7.234-1.666 29.734-7.466 12.233-3.134 16.166-4.134 40.666-10.4 6.967-1.767 16.334-4.167 20.834-5.3 4.499-1.167 13.266-3.4 19.499-5 19.767-5.034 29.134-7.434 35.8-9.134 3.567-.933 6.6-1.6 6.767-1.5.133.1.267 69.9.267 155.167 0 144.333-.034 154.966-.567 154.966-.3 0-4.9-1.133-10.233-2.466-15.8-4.067-37.534-9.6-50.367-12.867-13.633-3.467-30.566-7.767-46.666-11.867-34.2-8.733-45.134-11.466-45.634-11.466s-.533.566-.466 5.233l.1 5.2 2.666.733c2.467.667 5.034 1.4 18.334 5.134 6.033 1.666 24.366 6.8 34.833 9.7 24.267 6.766 40.966 11.4 52.166 14.566 2.934.834 6.6 1.834 8.167 2.267 1.567.433 6.667 1.833 11.333 3.133 4.667 1.334 12.767 3.567 18 5.034 5.234 1.466 12.2 3.4 15.5 4.333 3.3.9 6.2 1.667 6.434 1.667.3 0 .4-34.867.4-173.3 0-95.333-.1-173.4-.234-173.467-.166-.066-.566-.066-.933 0ZM1.3 35.066c-.167.367-.234 5.8-.434 34.767C.6 102.7.866 117.3 1.7 120.4c.533 1.9-.4 1.666 10.3 2.6 4.3.366 9.333.833 11.166 1 3.534.333 25.534 2.366 34.834 3.2 3.033.266 7.833.7 10.666.966 2.834.267 5.434.5 5.767.5.533 0 .567-2.066.567-38.433V51.766l-3.4-.733c-1.9-.4-6.267-1.4-9.767-2.2-3.467-.833-11.367-2.633-17.5-4C19.1 39.1 2.8 35.366 1.933 35.133c-.333-.1-.633-.133-.633-.067Zm10.433 7.967c2.433.567 7.367 1.7 10.933 2.5 14.8 3.367 18.834 4.3 32.5 7.433L69.5 56.233l.1 33.2c.033 19.267-.067 33.233-.234 33.233-1.333 0-62.566-5.733-62.7-5.866-.1-.1-.233-13.2-.266-29.067C6.266 58.8 6.5 42 7 42c.166 0 2.3.466 4.733 1.033Z"/>
  <path fill="black" d="M281.166 38.033c-4.533 1.067-19.5 4.5-27 6.133-4.533 1-10.9 2.467-31 7.034-3.666.833-6.933 1.6-7.233 1.666-.567.167-.6 2.234-.6 37.267v37.1l.767-.1c.4-.067 3.3-.367 6.4-.633 3.133-.234 12.333-1.067 20.499-1.834 8.167-.766 21.1-1.933 28.767-2.633 7.667-.733 14-1.367 14.1-1.467.7-.7.8-7.733.6-44-.2-35.966-.267-39.566-.767-39.533-.3.033-2.333.467-4.533 1Zm2.633 39.567c.134 20.5.134 38.033.034 38.933l-.234 1.7-11.9 1.067c-6.533.566-18.233 1.633-26.033 2.366-7.8.734-16.866 1.567-20.166 1.834-3.3.266-6.3.533-6.667.6-.667.066-.667-.167-.767-34.234-.033-18.9.034-34.433.167-34.566.233-.234 6.233-1.6 31.433-7.3 8.567-1.934 20.433-4.634 28-6.367 3.033-.667 5.6-1.267 5.7-1.267.1-.033.3 16.734.433 37.234ZM82.266 90.9c0 20.5-.033 37.566-.066 37.933-.034.733-1.134.6 27.466 3.167 6.5.566 15.8 1.4 20.634 1.866 4.866.434 8.866.734 8.933.7.067-.066.2-15.366.333-33.966l.2-33.867-2.3-.533c-1.266-.267-4.633-1.067-7.466-1.7-2.834-.667-6.734-1.567-8.667-2-4.6-1.034-9.967-2.267-22.5-5.167-12.3-2.867-15.867-3.667-16.233-3.667-.134 0-.3 16.767-.334 37.234Zm24.667-26.067c10.033 2.3 19.067 4.4 20.067 4.633 1 .267 3 .734 4.433 1.034l2.567.533v57.7l-1.067-.167c-.6-.1-11.033-1.066-23.167-2.133l-22.1-1.933V92.6c0-28.667.067-31.934.534-31.934.266 0 8.7 1.867 18.733 4.167ZM201 56.3c-2.1.533-7.567 1.8-12.167 2.8-21.2 4.8-28.033 6.333-32.733 7.433l-5.1 1.2v32.633c0 17.934.1 32.634.266 32.634 1.1.066 53.3-4.8 53.467-4.967.833-.733.967-6.533.733-38.967-.133-18.533-.333-33.733-.433-33.7-.1 0-1.933.434-4.033.934Zm1.866 64c-.1 2.8-.233 5.166-.3 5.233-.1.1-47.366 4.467-48.433 4.467-.4 0-.467-4.767-.467-30.167 0-26.3.067-30.167.5-30.167.434 0 29.267-6.466 42.834-9.633l5.5-1.267.266 28.2c.134 15.5.2 30.5.1 33.334ZM1 174.499v43.534l1.766-.167c.934-.1 6.234-.5 11.734-.867a10825.93 10825.93 0 0 0 29-2c2.4-.166 7.866-.566 12.166-.866 4.3-.267 10.4-.7 13.5-.9l5.667-.4.3-27.334c.333-29.433.033-45.466-.9-48l-.467-1.333-12.633-.9a4151.183 4151.183 0 0 1-17.633-1.233c-2.734-.2-12.434-.867-21.5-1.5-9.067-.667-17.5-1.267-18.734-1.367l-2.266-.2v43.533Zm22.833-36.333c40.4 2.867 45.333 3.233 45.5 3.4.233.233.2 65.667-.033 65.9-.2.2-3.534.5-16.3 1.367-4.134.266-16.134 1.1-26.667 1.833-10.533.733-19.367 1.333-19.567 1.333-.333 0-.433-7.733-.433-37.5 0-35.5.033-37.5.6-37.5.3 0 7.934.534 16.9 1.167ZM278.499 133.033c-1.833.133-13.6.933-26.166 1.767-25.933 1.733-31.633 2.133-34.6 2.4l-2.067.2.067 37.033.1 37.066 5.833.4c3.2.234 12.434.867 20.5 1.434 24.5 1.7 37.5 2.633 41.1 2.866l3.4.234v-83.767l-2.4.034c-1.333.033-3.933.166-5.767.333Zm5.5 41.433c0 21.3-.066 38.833-.133 38.9-.1.067-2.667-.033-5.767-.267-3.066-.2-8-.566-10.933-.766-2.933-.2-14.9-1.034-26.567-1.834-11.699-.833-21.499-1.5-21.766-1.5-.5 0-.533-3.066-.467-34.3.034-18.9.167-34.466.267-34.633.1-.166 8.833-.866 19.367-1.566 10.533-.7 25.099-1.667 32.333-2.167 7.233-.467 13.266-.833 13.433-.733.133.066.233 17.533.233 38.866ZM82.6 137.233c-.567.133-.6 2.2-.6 37.1 0 29.2.1 37 .433 37.233.533.333 8.7.233 16.233-.233 18.034-1.067 35-2.4 38.6-3.034l2.067-.366v-32.4c0-31.5-.033-32.4-.667-33.434-1.1-1.833-2.1-2.1-8.766-2.466-3.334-.167-8.834-.534-12.234-.834-18.533-1.5-32.833-2.166-35.066-1.566Zm21.4 6.133c4.866.333 12.3.867 16.5 1.133 4.233.3 8.933.634 10.5.767l2.833.233-.1 28.834c-.067 15.866-.167 28.866-.2 28.9-.233.233-30.9 2.433-41.433 2.933l-4.434.233V142.266l3.767.233c2.033.134 7.7.5 12.567.867ZM199.5 138.366c-2 .167-12.667.9-23.667 1.633-11 .734-21.1 1.434-22.4 1.534l-2.433.2v65.2l1.933.2c1.033.1 7.467.566 14.233 1.033 6.8.467 17.467 1.233 23.767 1.667 6.3.466 12.2.833 13.1.833h1.633v-72.667l-1.233.034c-.7.033-2.9.2-4.933.333Zm3.5 35.933c0 18.334-.1 33.4-.234 33.467-.166.1-3.266-.067-6.933-.333-3.667-.267-14.6-1.034-24.333-1.7l-17.667-1.234-.1-30.1c-.067-23.9 0-30.1.333-30.2.234-.066 10.334-.733 22.434-1.533 12.1-.767 22.166-1.433 22.333-1.5.2-.067 1.2-.133 2.267-.133l1.9-.034v33.3ZM131.833 214.199c-6.733.6-30.033 2.7-39 3.467-4.2.367-8.367.767-9.267.867l-1.566.2v37.6c0 21.166.133 37.7.3 37.8.166.1 2.966-.4 6.233-1.167 16.233-3.667 29.233-6.6 42.467-9.567l8.5-1.9.1-33.933.066-33.9-1.566.033c-.9.034-3.7.234-6.267.5Zm2.1 34.2-.1 28.734-1 .233c-.533.133-2.5.567-4.333.967-1.834.4-7.6 1.7-12.834 2.866-5.233 1.2-12.433 2.834-16 3.634-3.566.8-7.733 1.733-9.233 2.1l-2.767.633v-63.833l1.767-.2c.933-.1 6.1-.567 11.4-1.034 5.333-.466 14.333-1.3 20-1.8 5.7-.533 10.967-.966 11.767-1l1.4-.033-.067 28.733ZM151.066 247.733l.1 32.7 3.334.766c1.833.4 7.7 1.734 13 2.967 5.333 1.2 12.6 2.867 16.166 3.667 3.567.8 9.5 2.166 13.167 3 3.667.833 7.067 1.6 7.6 1.733l.9.167v-72.734l-.733-.133c-.434-.1-6.767-.7-14.1-1.367-7.334-.666-18.934-1.7-25.8-2.333-6.834-.633-12.734-1.167-13.067-1.167-.633 0-.633.734-.567 32.734Zm9.267-29.234c15 1.4 41.767 3.834 42.033 3.834.167 0 .3 13.6.3 33.533v33.533l-.9-.233c-1.1-.267-11.333-2.6-20.6-4.7-3.666-.8-7.566-1.7-8.666-1.967-3.567-.866-18.3-4.166-18.567-4.166-.167 0-.267-13.567-.267-30.167 0-28.5.034-30.167.6-30.167.3 0 3.034.234 6.067.5ZM62.166 220.499c-6.4.634-14.3 1.367-17.5 1.634-9.633.866-31.1 2.833-37.366 3.4l-5.867.566-.167 43.367c-.1 23.867-.166 43.4-.133 43.433.067.1 6.6-1.366 25.8-5.766 2.867-.667 7.1-1.634 9.4-2.134 2.3-.5 8.133-1.833 13-2.933 16.6-3.8 25.133-5.733 25.4-5.733.133 0 .267-17.334.267-38.5 0-36.467-.034-38.5-.567-38.467-.333.033-5.833.533-12.267 1.133Zm7.334 38.167v33.133l-1 .234c-.534.133-3.7.833-7 1.6-8.334 1.866-36.4 8.233-39.834 9.033-1.566.367-5.433 1.267-8.566 2-3.167.733-5.934 1.333-6.134 1.333-.3 0-.366-8.9-.233-37.333.1-20.567.233-37.4.3-37.467.167-.166 61.7-5.8 62.133-5.7.234.034.334 11.367.334 33.167ZM215.333 258.099v37.134l1.933.4c1.034.233 4.467 1 7.567 1.733 19.533 4.433 35.6 8.067 39.5 8.933 8.566 1.9 20.833 4.7 21.433 4.9.533.167.567-1.966.567-41.833v-42.033h-.767c-.4 0-15.933-1.434-34.533-3.167-18.6-1.733-34.233-3.167-34.733-3.167h-.967v37.1Zm22.333-32.433c10 .933 22.067 2.067 26.833 2.5 4.767.467 10.467.967 12.667 1.167 2.2.2 4.567.433 5.267.533l1.233.2v38.8c0 34.633-.067 38.8-.5 38.8-.467 0-9.833-2.067-18.833-4.167-3.434-.8-19.334-4.4-32.5-7.366-7.4-1.634-12.367-2.767-13.233-3.034-.567-.133-.6-2.066-.6-34.566 0-18.934.1-34.5.2-34.6.1-.1.433-.134.733-.067s8.733.867 18.733 1.8ZM144.066 359.999c-.9.367-.766.7 1.334 3.667 4.666 6.567 4.033 5.933 6.1 6.167 3.033.4 4.866.033 5.9-1.2 1.733-2.034 5.633-7.967 5.433-8.267-.3-.533-2.167-.767-4-.533-1.7.2-1.8.266-3.2 2.266-2.733 3.967-2.233 3.867-4.433.734-1.667-2.434-2.034-2.767-3.134-2.967-1.666-.267-3.066-.233-4 .133ZM232.499 360.733c-.1.233-.133 10.1-.1 21.933l.1 21.5h4.667l.1-8.1c.033-4.434.2-8.067.333-8.067.134 0 2.734 3.333 5.8 7.433 3.067 4.067 5.867 7.734 6.267 8.167.633.7.967.767 3.267.667 2-.067 2.566-.2 2.666-.634.034-.266-2.7-4.166-6.1-8.6l-6.233-8.133 5.533-5.533c6.534-6.6 6.867-7.367 3.067-7.367-2.167 0-3.2.534-5.033 2.634-4.4 5.033-9 10.033-9.234 10.033-.133 0-.3-5.9-.333-13.1l-.1-13.067-2.267-.1c-1.6-.066-2.3.034-2.4.334ZM201.633 363.199c-6.467 1.4-10.5 5-12.7 11.334-1.767 5.166-1.833 13.333-.1 18.966 2.333 7.667 7.667 11.3 16.5 11.267 9.433 0 15.433-4.534 17.9-13.467.833-3.066.867-12.866 0-15.966-1.833-6.834-5.9-10.834-12.3-12.134-3.1-.633-6.333-.633-9.3 0Zm9.633 5.134c1.1.466 2.334 1.4 3.367 2.533 2.633 2.867 3.7 6.6 3.7 12.9 0 10.6-4.433 16.3-12.667 16.3-6.133-.034-9.6-2.5-11.366-8.067-1-3.1-1.267-10.633-.5-14.033 1.266-5.733 4.166-9.133 8.766-10.3 2.167-.533 6.7-.2 8.7.667ZM3.433 363.999l-.767.7v19.6c0 17.6.067 19.633.534 19.833 1 .367 6.333.2 6.9-.233.5-.333.566-1.267.633-7.067l.1-6.666 4.333-.234c6.734-.333 10.5-2.033 13.134-5.966 1.633-2.467 2.2-4.667 2.166-8.5-.033-2.467-.2-3.334-.866-4.833-1.1-2.4-2.5-3.967-4.567-5.067-3.3-1.8-4.267-1.967-12.867-2.133-7.8-.167-8.033-.134-8.733.566Zm13.967 6.034c2.267.5 3.7 1.933 4.267 4.299.8 3.3-.467 6.867-2.9 8.367-1.067.667-1.834.8-4.667.9l-3.434.133v-6.8c0-3.766.1-6.933.234-7.033.333-.366 4.566-.266 6.5.134ZM120.933 366.699c-.5.267-.6.867-.6 3.8v3.5h-1.967c-1.1 0-2.066.134-2.166.3-.467.733-.567 3.3-.234 4.633l.4 1.4h3.967v7.567c0 4.2.167 8.567.333 9.767.467 2.833 1.734 4.866 3.8 6.166 1.534.934 1.834 1 5 1 3.567 0 5.3-.466 5.867-1.533.433-.767.433-5.2 0-5.467-.167-.1-1.2 0-2.267.2-1.6.334-2.1.334-2.9-.066-1.566-.767-1.8-1.934-1.8-10.234l-.033-7.4h3.333c3.867 0 4-.1 4-3.3 0-3.099.1-3.033-3.866-3.033h-3.467v-3.5c0-3.1-.067-3.5-.633-3.833-.834-.433-6.034-.433-6.767.033ZM49.833 373.333c-1.7.366-3.067 1.266-4.567 3-.8.9-1.533 1.666-1.666 1.666-.134 0-.234-.766-.2-1.7 0-.933-.167-1.866-.367-2.066-.633-.634-5.633-.534-6.033.1-.2.3-.334 6.4-.334 14.9 0 13.899.034 14.433.634 14.766.933.467 6.466.433 6.966-.067.3-.3.4-2.866.4-9.433v-9l1.267-1.666c1.933-2.534 3.2-3.267 5.233-3.034 3.6.467 3.3.567 3.567-1.466.333-2.2.033-5.234-.5-5.567-.633-.4-3.333-.633-4.4-.433ZM71.333 373.233c-8.9.633-14 6.6-14 16.333 0 2.933.8 6.7 1.867 8.8.4.833 1.566 2.266 2.566 3.2 2.467 2.233 4.834 3.1 9.067 3.333 5.633.3 9.667-1.067 12.7-4.3 2.867-3.066 4.367-8.166 4-13.6-.467-6.666-3.4-11.2-8.3-12.866-1.667-.567-5.867-1.034-7.9-.9Zm3.133 6.466c1.767.434 3.067 1.6 4 3.6.6 1.3.7 2.167.7 5.7 0 3.8-.066 4.334-.866 6.034-1.134 2.366-2.567 3.333-5.4 3.533-3.5.267-5.967-1.533-6.967-5.033-.667-2.334-.467-7.4.367-9.6 1.433-3.7 4.333-5.2 8.166-4.234ZM101.8 373.366c-3.767.333-6.934 2.233-8.3 4.966-.667 1.3-.834 2.134-.834 4.067.034 4.3 1.767 6.567 6.6 8.6 5.3 2.233 6.1 2.7 6.567 3.767.5 1.233.133 2.8-.833 3.633-1.7 1.4-5.967 1.033-9.567-.8-2.633-1.333-2.933-1.133-2.933 2.033 0 2.834.433 3.4 3.466 4.434 3.067 1.066 8.967 1.066 11.7 0 2.434-.967 4.167-2.434 5.267-4.534.733-1.4.867-2.133.9-4.2 0-4.833-2-6.933-9.167-9.7-3-1.133-4.666-2.433-4.666-3.633 0-.867.6-2.033 1.3-2.567 1.466-1.066 5.133-.766 8.533.734 2.2 1 2.5.733 2.5-2.2 0-2.034-.1-2.334-.867-2.934-1.666-1.3-5.766-2-9.666-1.666ZM148.633 373.833c-5 1.833-7.933 5.366-9.133 11.066-1.2 5.567-.134 11.8 2.6 15.5.966 1.3 3.733 3.1 5.9 3.833 2.766.934 9.966.867 13.3-.133 3.866-1.167 4.033-1.333 4.033-4.267 0-2.833-.367-3.199-2.433-2.333-3.067 1.267-8.467 1.867-10.867 1.167-2.767-.8-4.533-3-4.767-6l-.1-1.5 9.134-.1c8.133-.067 9.233-.133 9.8-.667.566-.5.633-.933.5-4.233-.134-2.633-.367-4.167-.867-5.5-1.3-3.333-3.967-5.767-7.4-6.8-2.2-.667-7.967-.667-9.7-.033Zm7.833 5.8c1.334.733 2.534 3.1 2.534 4.933v1.433h-12l.2-.933c.8-3.667 2.033-5.5 4.066-5.933.5-.1 1.067-.234 1.234-.3.633-.234 3 .233 3.966.8ZM272.666 374.133c-1.467.5-3.5 1.833-4.933 3.166-.6.567-1.167 1.034-1.267 1.034-.067 0-.133-.8-.133-1.767 0-.967-.167-1.933-.4-2.167-.434-.433-3.2-.533-3.867-.133-.333.233-.4 3.467-.333 15.1l.1 14.8h4.666l.167-10.434.167-10.466 2.366-2.267c1.9-1.8 2.7-2.333 4.034-2.633 3.266-.8 6.1.8 7.1 4 .333 1.033.5 4.366.633 11.633l.2 10.167 1 .166c.567.1 1.6.1 2.333 0l1.334-.166.1-10.3c.033-5.9-.067-11.1-.267-12.133-.7-3.767-2.833-6.5-5.933-7.534-1.8-.633-5.434-.666-7.067-.066ZM300.566 374.466c-4.1 1.233-5.533 2.633-5.1 4.967.133.7.433 1.233.667 1.233.266 0 1.566-.533 2.9-1.167 5.666-2.666 10.7-2.2 12.366 1.167.334.667.667 2.267.8 3.6l.234 2.4h-2.7c-7.634 0-13 1.967-14.767 5.4-.867 1.7-1.167 4.9-.667 6.8.534 1.933 2.634 4.2 4.767 5.133 2.567 1.1 6.767 1.067 9.3-.066 1-.467 2.367-1.3 3.033-1.9.667-.567 1.267-1.034 1.367-1.034.1 0 .233.7.3 1.567l.1 1.6h4l.1-11c.1-12.5-.1-14.067-2.1-16.433-1.8-2.067-3.967-2.834-8.333-2.967-3.1-.067-4.067.033-6.267.7Zm11.7 19 .1 2.967-1.533 1.433c-2.134 2.067-3.8 2.833-6.167 2.833-3.4.034-5.333-1.7-5.333-4.733 0-3.867 3.366-5.667 10.333-5.5l2.5.033.1 2.967Z"/>
</svg>
