<svg width="16" height="18" viewBox="0 0 16 18" fill="none" xmlns="http://www.w3.org/2000/svg">
<path fill-rule="evenodd" clip-rule="evenodd" d="M4.26867 2.15075C4.05329 1.85503 3.63109 1.80671 3.35446 2.04611L1.8986 3.30604C1.5795 3.5822 1.39365 3.94545 1.40375 4.31654C1.49675 7.73071 4.15266 14.2376 11.2623 16.4406C11.7251 16.584 12.2392 16.4712 12.6363 16.1525L13.9137 15.1272C14.19 14.9054 14.2269 14.4985 13.995 14.2307L12.0446 11.9779C11.8329 11.7333 11.4696 11.6907 11.2071 11.8797L10.3095 12.5256C9.86712 12.844 9.25553 12.8835 8.78638 12.546C7.55479 11.6599 5.66975 9.91112 4.78127 7.67426C4.57327 7.15061 4.75348 6.584 5.14514 6.23424L5.99415 5.47604C6.23368 5.26213 6.27211 4.9015 6.08305 4.64192L4.26867 2.15075ZM2.86367 1.47899C3.47226 0.952307 4.40108 1.05862 4.87492 1.7092L6.6893 4.20037C7.10524 4.77147 7.02068 5.56484 6.49371 6.03544L5.6447 6.79364C5.45861 6.95983 5.40035 7.20116 5.47829 7.3974C6.29187 9.44565 8.04858 11.0913 9.22437 11.9372C9.40564 12.0676 9.66352 12.0665 9.87145 11.9168L10.769 11.2709C11.3466 10.8552 12.1459 10.949 12.6117 11.487L14.562 13.7398C15.0722 14.3291 14.991 15.2242 14.3831 15.7121L13.1057 16.7374C12.534 17.1963 11.7642 17.3813 11.0403 17.157C3.55902 14.8388 0.753774 7.99862 0.654032 4.33696C0.636485 3.69281 0.958952 3.12738 1.40781 2.73893L2.86367 1.47899Z" fill="#231D21" stroke="#231D21" stroke-width="0.5"/>
</svg>
