<svg xmlns="http://www.w3.org/2000/svg" width="38" height="48" fill="none"><path fill="#231D21" d="M35.472 2.21c-.04.01-.407.11-.821.224-.897.25-5.246 1.471-6.48 1.821-.483.136-1.254.354-1.715.482-1.278.361-2.528.71-3.552 1-.511.143-1.475.414-2.143.604-2.496.7-3.092.87-3.11.889-.01.01-.028.26-.04.557-.017.485-.013.539.037.539.06 0 .774-.179 3.184-.8 1.31-.336 1.732-.443 4.357-1.114l2.231-.568c.482-.125 1.421-.364 2.09-.535l3.834-.979c.382-.1.707-.171.725-.16.014.01.028 7.487.028 16.62 0 15.461-.003 16.6-.06 16.6-.033 0-.525-.121-1.097-.264a2356.42 2356.42 0 0 0-5.395-1.378l-4.999-1.271c-3.663-.936-4.834-1.228-4.888-1.228-.053 0-.057.06-.05.56l.011.557.286.079c.264.071.539.15 1.963.55.647.178 2.61.728 3.732 1.039 2.6.724 4.388 1.22 5.588 1.56.314.09.707.196.875.243.167.046.714.196 1.213.335.5.143 1.368.382 1.929.54.56.157 1.306.364 1.66.464.353.096.664.178.69.178.031 0 .042-3.735.042-18.563 0-10.212-.01-18.574-.025-18.582a.23.23 0 0 0-.1 0ZM2.173 5.905c-.018.04-.025.621-.047 3.724-.028 3.52 0 5.085.09 5.417.057.203-.043.178 1.103.278.46.04 1 .09 1.196.107a1469.233 1469.233 0 0 0 5.492.5c.057 0 .06-.221.06-4.117v-4.12l-.364-.079c-.203-.042-.671-.15-1.046-.235-.371-.09-1.218-.282-1.875-.429a758.235 758.235 0 0 1-4.541-1.039c-.036-.01-.068-.014-.068-.007Zm1.117.853c.261.061.79.183 1.172.268 1.585.36 2.017.46 3.48.796l1.536.35.01 3.557c.005 2.064-.006 3.56-.024 3.56-.143 0-6.702-.615-6.716-.629-.011-.01-.025-1.414-.029-3.113-.014-3.1.01-4.9.064-4.9.018 0 .247.05.507.111Z"/><path fill="#231D21" d="M32.151 6.223c-.485.114-2.088.482-2.892.657-.485.107-1.167.264-3.32.753l-.775.179c-.06.018-.064.239-.064 3.992v3.974l.082-.011c.043-.007.353-.04.685-.068.336-.025 1.321-.114 2.196-.196.875-.082 2.26-.207 3.082-.282.82-.079 1.5-.147 1.51-.157.075-.075.086-.829.064-4.714-.021-3.852-.028-4.238-.082-4.234a8.78 8.78 0 0 0-.486.107Zm.283 4.238c.014 2.196.014 4.074.003 4.17l-.025.183-1.274.114c-.7.06-1.954.175-2.79.253-.835.079-1.806.168-2.16.197a22.29 22.29 0 0 0-.713.064c-.072.007-.072-.018-.083-3.667-.003-2.024.004-3.688.018-3.703.025-.025.668-.171 3.367-.782.918-.207 2.19-.496 3-.682.325-.071.6-.135.61-.135.01-.004.032 1.792.047 3.988ZM10.846 11.886c0 2.196-.004 4.024-.007 4.063-.004.079-.122.064 2.942.34.696.06 1.692.15 2.21.2.521.046.95.078.957.074.007-.007.021-1.646.036-3.638l.021-3.628-.246-.057c-.136-.029-.497-.114-.8-.182-.303-.072-.721-.168-.928-.214-.493-.111-1.068-.243-2.41-.554-1.318-.307-1.7-.393-1.74-.393-.014 0-.031 1.796-.035 3.989Zm2.642-2.792c1.075.246 2.043.47 2.15.496.107.028.321.078.475.11l.274.058v6.18l-.114-.018c-.064-.01-1.182-.114-2.481-.228l-2.368-.207v-3.417c0-3.07.008-3.42.058-3.42.028 0 .931.2 2.006.446ZM23.564 8.18c-.225.057-.81.192-1.303.3-2.27.514-3.003.678-3.506.796l-.546.128V12.9c0 1.92.01 3.495.028 3.495.118.008 5.71-.514 5.727-.532.09-.078.104-.7.079-4.174-.014-1.985-.036-3.613-.047-3.61-.01 0-.207.047-.432.1Zm.2 6.855c-.01.3-.025.553-.032.56-.01.011-5.074.48-5.188.48-.043 0-.05-.511-.05-3.232 0-2.818.007-3.232.054-3.232.046 0 3.135-.692 4.588-1.032l.59-.135.028 3.02c.014 1.66.021 3.268.01 3.571ZM2.14 20.84v4.664l.19-.018c.1-.01.668-.053 1.257-.093 1.47-.1 2.553-.175 3.106-.214l1.303-.093c.461-.028 1.114-.075 1.446-.096l.607-.043.033-2.928c.035-3.153.003-4.87-.097-5.141l-.05-.143-1.353-.097c-.743-.05-1.593-.11-1.889-.132l-2.303-.16c-.971-.072-1.874-.136-2.007-.147l-.242-.021v4.663Zm2.446-3.891c4.328.307 4.856.346 4.874.364.025.025.022 7.034-.003 7.06-.022.02-.379.053-1.746.145-.443.03-1.728.118-2.857.197-1.128.079-2.074.143-2.096.143-.035 0-.046-.829-.046-4.017 0-3.803.003-4.017.064-4.017.032 0 .85.057 1.81.125ZM31.866 16.399c-.197.014-1.457.1-2.803.19-2.778.185-3.389.228-3.706.256l-.222.022.007 3.967.011 3.97.625.043 2.196.154c2.624.182 4.017.282 4.402.307l.365.025V16.36l-.258.003c-.142.004-.42.018-.617.036Zm.589 4.438c0 2.282-.007 4.16-.014 4.167a6.224 6.224 0 0 1-.618-.028c-.329-.022-.857-.061-1.171-.082l-2.846-.197c-1.253-.09-2.303-.16-2.332-.16-.053 0-.057-.33-.05-3.675.004-2.024.018-3.692.029-3.71.01-.017.946-.092 2.075-.167 1.128-.075 2.688-.179 3.463-.232.775-.05 1.421-.09 1.439-.079.014.007.025 1.878.025 4.163ZM10.882 16.849c-.061.014-.065.235-.065 3.974 0 3.128.011 3.963.047 3.988.057.036.932.025 1.739-.025 1.931-.114 3.749-.257 4.134-.325l.222-.039v-3.47c0-3.375-.004-3.471-.072-3.582-.117-.196-.225-.225-.939-.264a41.737 41.737 0 0 1-1.31-.09c-1.985-.16-3.517-.231-3.756-.167Zm2.292.657c.521.035 1.318.093 1.767.121.454.032.957.068 1.125.082l.304.025-.011 3.089c-.007 1.7-.018 3.092-.022 3.096-.024.025-3.31.26-4.438.314l-.475.025v-6.87l.404.025c.218.014.825.053 1.346.093ZM23.404 16.97c-.215.018-1.357.097-2.535.175-1.179.079-2.26.154-2.4.164l-.26.022v6.984l.207.021c.11.011.8.061 1.524.111.729.05 1.871.132 2.546.179.675.05 1.307.089 1.403.089h.175V16.93l-.132.003c-.075.004-.31.022-.528.036Zm.375 3.85c0 1.963-.011 3.577-.025 3.584-.018.01-.35-.007-.743-.035-.393-.03-1.564-.111-2.607-.183l-1.892-.132-.01-3.224c-.008-2.56 0-3.224.035-3.235.025-.007 1.107-.078 2.403-.164a149.2 149.2 0 0 0 2.392-.16c.022-.008.129-.015.243-.015l.204-.004v3.567ZM16.155 25.093c-.72.065-3.217.29-4.177.372-.45.039-.896.082-.993.093l-.168.02v4.029c0 2.267.015 4.038.033 4.049.017.01.317-.043.667-.125 1.74-.393 3.132-.707 4.55-1.025l.91-.204.01-3.634.008-3.632-.168.004c-.097.003-.397.025-.672.053Zm.225 3.664-.01 3.078-.108.025c-.057.014-.267.06-.464.103l-1.374.307c-.56.129-1.332.304-1.714.39-.382.085-.829.185-.99.224l-.296.068v-6.837l.19-.022c.1-.01.653-.06 1.22-.11.572-.05 1.536-.14 2.143-.193.61-.057 1.175-.104 1.26-.107l.15-.004-.007 3.078ZM18.215 28.685l.011 3.503.357.082c.197.043.825.186 1.393.318l1.732.393c.382.085 1.017.232 1.41.321l.814.186.096.018v-7.791l-.078-.015c-.047-.01-.725-.075-1.51-.146-.786-.071-2.029-.182-2.764-.25a99.395 99.395 0 0 0-1.4-.125c-.068 0-.068.079-.06 3.506Zm.993-3.131c1.607.15 4.474.41 4.503.41.018 0 .032 1.457.032 3.593v3.592l-.097-.025a497.288 497.288 0 0 0-3.135-.715c-.382-.092-1.96-.446-1.988-.446-.018 0-.029-1.453-.029-3.231 0-3.053.003-3.232.064-3.232.032 0 .325.025.65.054ZM8.692 25.768c-.685.068-1.531.147-1.874.175-1.032.093-3.331.304-4.003.364l-.628.061-.018 4.645c-.01 2.557-.018 4.65-.014 4.653.007.01.707-.146 2.763-.618.307-.071.76-.175 1.007-.228.247-.054.872-.197 1.393-.315a168.25 168.25 0 0 1 2.72-.614c.015 0 .03-1.856.03-4.124 0-3.906-.004-4.124-.061-4.12l-1.315.121Zm.786 4.088v3.55l-.107.025c-.057.014-.396.089-.75.171-.893.2-3.899.882-4.267.968l-.917.214c-.34.078-.636.143-.657.143-.033 0-.04-.954-.025-4 .01-2.202.025-4.005.032-4.013.018-.018 6.609-.62 6.655-.61.025.003.036 1.217.036 3.553ZM25.1 29.796v3.977l.207.043c.11.025.478.107.81.186 2.093.475 3.814.864 4.231.957.918.203 2.232.503 2.296.525.057.018.061-.21.061-4.481V26.5h-.082c-.043 0-1.707-.153-3.7-.339a443.19 443.19 0 0 0-3.72-.34H25.1v3.975Zm2.392-3.474c1.071.1 2.364.221 2.874.267.51.05 1.121.104 1.357.125.236.022.49.047.564.058l.132.021v4.156c0 3.71-.007 4.156-.053 4.156-.05 0-1.054-.221-2.018-.446-.367-.086-2.07-.471-3.48-.79a44.535 44.535 0 0 1-1.418-.324c-.061-.014-.065-.221-.065-3.703 0-2.028.011-3.695.022-3.706.01-.01.046-.014.078-.007s.936.093 2.007.193ZM17.466 40.711c-.097.04-.082.075.142.393.5.703.433.635.654.66.325.043.521.004.632-.128.186-.218.603-.854.582-.886-.032-.057-.232-.082-.429-.057-.182.022-.192.029-.342.243-.293.425-.24.414-.475.079-.179-.261-.218-.297-.336-.318-.178-.029-.328-.025-.428.014ZM26.938 40.79c-.01.025-.014 1.081-.01 2.35l.01 2.302h.5l.01-.867c.005-.475.022-.865.037-.865.014 0 .292.357.62.797.33.435.63.828.672.874.068.075.104.083.35.072.214-.007.275-.022.286-.068.003-.029-.29-.446-.654-.921l-.667-.871.592-.593c.7-.707.736-.79.329-.79-.232 0-.343.058-.54.283-.47.539-.963 1.075-.988 1.075-.015 0-.032-.632-.036-1.404l-.01-1.4-.244-.01c-.171-.007-.246.004-.257.036ZM23.632 41.054c-.693.15-1.125.535-1.36 1.214-.19.553-.197 1.428-.011 2.032.25.82.821 1.21 1.767 1.206 1.01 0 1.653-.485 1.918-1.442.089-.329.092-1.378 0-1.71-.197-.732-.632-1.16-1.318-1.3a2.465 2.465 0 0 0-.996 0Zm1.032.55c.118.05.25.15.36.271.282.307.397.707.397 1.382 0 1.135-.475 1.746-1.357 1.746-.657-.004-1.028-.268-1.218-.864-.107-.332-.135-1.14-.053-1.503.136-.614.446-.979.939-1.104.232-.057.718-.021.932.072ZM2.401 41.14l-.082.075v2.1c0 1.884.007 2.102.057 2.124.108.039.679.021.74-.025.053-.036.06-.136.067-.757l.011-.714.464-.026c.722-.035 1.125-.217 1.407-.639.175-.264.236-.5.232-.91-.003-.264-.021-.357-.093-.518-.117-.257-.267-.425-.489-.543-.353-.192-.457-.21-1.378-.228-.836-.018-.86-.014-.936.06Zm1.497.646c.242.053.396.207.457.46.085.354-.05.736-.311.897-.114.071-.196.085-.5.096l-.368.014v-.728c0-.404.011-.743.025-.753.036-.04.49-.029.697.014ZM14.988 41.429c-.054.028-.065.093-.065.407v.375h-.21c-.118 0-.222.014-.232.032-.05.078-.061.353-.025.496l.042.15h.425v.81c0 .45.018.918.036 1.047.05.303.186.521.407.66.164.1.197.108.536.108.382 0 .567-.05.628-.165.046-.082.046-.557 0-.585-.018-.011-.128 0-.243.021-.171.036-.225.036-.31-.007-.168-.082-.193-.207-.193-1.096l-.004-.793h.357c.415 0 .429-.01.429-.353 0-.332.01-.325-.414-.325h-.372v-.375c0-.332-.007-.375-.068-.41-.089-.047-.646-.047-.724.003ZM7.372 42.14c-.182.039-.329.135-.49.32-.085.097-.164.18-.178.18-.014 0-.025-.083-.021-.183 0-.1-.018-.2-.04-.221-.067-.068-.603-.057-.646.01-.021.033-.036.686-.036 1.597 0 1.488.004 1.546.068 1.581.1.05.693.047.747-.007.032-.032.042-.307.042-1.01v-.964l.136-.179c.207-.271.343-.35.56-.325.386.05.354.06.383-.157.035-.235.003-.56-.054-.596-.068-.043-.357-.068-.471-.047ZM9.674 42.129c-.953.068-1.5.707-1.5 1.75 0 .313.087.717.2.942.044.09.169.243.276.343.264.239.517.332.97.357.604.032 1.036-.115 1.361-.46.307-.33.468-.876.429-1.458-.05-.714-.364-1.2-.89-1.378-.178-.06-.628-.11-.846-.096Zm.336.692c.19.047.329.172.429.386.064.14.075.232.075.61 0 .408-.008.465-.093.647-.122.253-.275.357-.579.378-.375.029-.639-.164-.746-.539-.071-.25-.05-.792.04-1.028.153-.396.463-.557.874-.454ZM12.938 42.143c-.403.036-.743.24-.889.532-.071.14-.09.228-.09.436.004.46.19.703.708.92.567.24.653.29.703.404.054.132.014.3-.09.39-.181.15-.638.11-1.024-.086-.282-.143-.314-.122-.314.218 0 .303.046.364.371.474.329.115.96.115 1.253 0 .261-.103.447-.26.565-.485.078-.15.092-.229.096-.45 0-.518-.214-.743-.982-1.04-.321-.12-.5-.26-.5-.388 0-.093.065-.218.14-.275.157-.114.55-.082.914.078.235.107.267.079.267-.235 0-.218-.01-.25-.092-.315-.179-.139-.618-.214-1.036-.178ZM17.955 42.193c-.536.196-.85.575-.978 1.185-.129.597-.015 1.264.278 1.66.104.14.4.333.632.411.296.1 1.068.093 1.425-.014.414-.125.432-.143.432-.457 0-.303-.04-.343-.26-.25-.33.136-.908.2-1.165.125a.693.693 0 0 1-.51-.643l-.011-.16.978-.011c.871-.007.99-.014 1.05-.072.06-.053.068-.1.053-.453-.014-.282-.039-.446-.092-.59a1.213 1.213 0 0 0-.793-.727c-.236-.072-.853-.072-1.039-.004Zm.839.621c.143.079.271.332.271.529v.153H17.78l.021-.1c.086-.393.218-.589.436-.635.054-.011.114-.025.132-.033.068-.025.322.026.425.086ZM31.241 42.225a1.716 1.716 0 0 0-.528.34.69.69 0 0 1-.136.11.678.678 0 0 1-.014-.19c0-.103-.018-.206-.043-.231-.047-.047-.343-.057-.414-.015-.036.025-.043.372-.036 1.618l.01 1.585h.5l.018-1.117.018-1.122.254-.242c.203-.193.289-.25.432-.282a.608.608 0 0 1 .76.428c.036.11.054.468.068 1.246l.021 1.09.108.017c.06.01.171.01.25 0l.142-.018.011-1.103c.004-.632-.007-1.19-.028-1.3-.075-.403-.304-.696-.636-.807-.193-.068-.582-.071-.757-.007ZM34.23 42.26c-.44.133-.593.283-.547.533.014.075.047.132.072.132.028 0 .167-.057.31-.125.607-.286 1.146-.236 1.325.125.036.071.071.243.086.386l.025.257h-.29c-.817 0-1.392.21-1.581.578a1.235 1.235 0 0 0-.072.728c.057.207.282.45.51.55.276.118.726.115.997-.007.107-.05.254-.14.325-.203a.832.832 0 0 1 .146-.111c.011 0 .025.075.032.168l.011.171h.429l.01-1.178c.011-1.34-.01-1.507-.225-1.76-.193-.222-.425-.304-.892-.318-.332-.007-.436.003-.672.075Zm1.253 2.036.01.318-.164.153c-.228.222-.407.304-.66.304-.365.003-.572-.182-.572-.507 0-.414.36-.607 1.107-.59l.268.004.01.318Z"/></svg>