<svg xmlns="http://www.w3.org/2000/svg" width="42" height="52" fill="none">
  <path fill="#231D21" d="M18.541 44.996c-.107.044-.09.083.158.434.552.778.477.703.722.73.36.048.576.005.698-.141.206-.241.668-.944.644-.98-.036-.062-.257-.09-.474-.062-.201.023-.213.031-.379.268-.323.47-.264.458-.524.087-.198-.288-.241-.328-.371-.351-.198-.032-.364-.028-.474.015ZM1.89 45.47l-.09.083v2.32c0 2.084.008 2.325.063 2.349.118.043.75.023.817-.028.06-.04.067-.15.075-.837l.012-.79.513-.027c.797-.04 1.243-.24 1.555-.706.193-.292.26-.553.256-1.006-.004-.293-.024-.395-.102-.573-.13-.284-.296-.47-.541-.6-.39-.213-.505-.232-1.523-.252-.924-.02-.952-.016-1.034.067Zm1.654.714c.268.06.438.23.505.51.095.39-.055.812-.343.99-.126.079-.217.095-.553.107l-.406.015v-.805c0-.446.012-.82.028-.832.039-.044.54-.032.77.015ZM15.802 45.79c-.06.031-.071.102-.071.45v.414h-.233c-.13 0-.245.016-.257.035-.055.087-.067.391-.027.55l.047.165h.47v.896c0 .497.02 1.014.04 1.156.054.335.204.576.449.73.181.11.217.118.592.118.422 0 .627-.055.695-.181.05-.09.05-.616 0-.647-.02-.012-.143 0-.269.023-.19.04-.248.04-.343-.008-.186-.09-.213-.228-.213-1.211l-.004-.876h.394c.458 0 .474-.012.474-.39 0-.368.012-.36-.458-.36h-.41v-.414c0-.367-.008-.415-.075-.454-.099-.052-.715-.052-.801.004ZM7.384 46.575c-.201.043-.363.15-.54.355-.095.107-.182.198-.198.198-.016 0-.028-.091-.024-.202 0-.11-.02-.22-.043-.244-.075-.075-.667-.064-.714.011-.024.036-.04.758-.04 1.765 0 1.645.004 1.708.075 1.748.11.055.766.051.825-.008.036-.036.047-.34.047-1.117v-1.066l.15-.197c.23-.3.38-.387.62-.359.426.055.39.067.422-.174.04-.26.004-.62-.059-.659-.075-.047-.395-.075-.521-.05ZM9.929 46.563c-1.054.075-1.658.782-1.658 1.934 0 .347.095.793.221 1.042.048.099.186.268.304.379.292.264.573.367 1.074.394.667.036 1.144-.126 1.503-.509.34-.363.517-.967.474-1.61-.055-.79-.403-1.326-.983-1.523-.197-.067-.694-.123-.935-.107Zm.371.766c.21.051.363.19.473.426.072.154.083.257.083.675 0 .45-.008.513-.102.714-.134.28-.304.395-.64.419-.414.031-.706-.182-.824-.596-.08-.277-.056-.877.043-1.137.17-.438.513-.616.967-.501ZM13.537 46.579c-.446.04-.821.264-.983.588-.079.154-.099.253-.099.481.004.51.21.778.782 1.019.627.264.722.32.777.446a.395.395 0 0 1-.098.43c-.202.166-.707.122-1.133-.095-.312-.158-.348-.134-.348.24 0 .336.052.403.411.526.363.126 1.062.126 1.385 0 .288-.115.494-.288.624-.537.086-.166.102-.253.106-.497 0-.573-.236-.821-1.085-1.149-.355-.134-.553-.288-.553-.43 0-.102.072-.24.154-.304.174-.126.608-.09 1.01.087.261.118.297.087.297-.26 0-.241-.012-.277-.103-.348-.197-.154-.683-.237-1.144-.197ZM19.081 46.634c-.591.217-.939.636-1.08 1.31-.143.66-.017 1.398.307 1.835.114.154.442.367.698.454.328.11 1.18.103 1.575-.015.458-.139.478-.158.478-.506 0-.335-.044-.378-.288-.276-.364.15-1.003.221-1.287.138-.328-.094-.537-.355-.564-.71l-.012-.178 1.081-.011c.963-.008 1.093-.016 1.16-.08.067-.059.075-.11.06-.5-.016-.312-.044-.494-.103-.652a1.34 1.34 0 0 0-.876-.805c-.26-.079-.943-.079-1.149-.004Zm.928.687c.158.087.3.367.3.584v.17h-1.42l.023-.11c.095-.435.24-.652.481-.703a1.33 1.33 0 0 0 .146-.036c.075-.027.355.028.47.095ZM24.571 50.35H23.1a.1.1 0 0 1-.1-.1v-4.892a.1.1 0 0 1 .1-.1h1.54c.494 0 .917.102 1.268.306.352.203.621.493.808.873.188.378.281.83.281 1.357 0 .53-.094.987-.283 1.37a2.019 2.019 0 0 1-.825.88c-.362.204-.8.306-1.318.306Zm-.955-.647a.1.1 0 0 0 .1.1h.815c.421 0 .77-.082 1.047-.244.277-.162.483-.394.619-.694.136-.3.204-.657.204-1.07 0-.412-.067-.766-.202-1.062a1.485 1.485 0 0 0-.601-.686c-.267-.161-.6-.242-.997-.242h-.884a.1.1 0 0 0-.1.1v3.798ZM30.777 46.531a.1.1 0 0 1 .094.135l-1.338 3.618a.1.1 0 0 1-.094.065h-.457a.1.1 0 0 1-.094-.065l-1.338-3.618a.1.1 0 0 1 .094-.135h.421a.1.1 0 0 1 .095.068l1.024 2.956a.028.028 0 0 0 .053 0L30.26 46.6a.1.1 0 0 1 .094-.068h.422ZM32.98 50.429c-.368 0-.685-.081-.952-.244a1.635 1.635 0 0 1-.614-.686 2.34 2.34 0 0 1-.214-1.029c0-.39.072-.736.214-1.034.144-.3.345-.533.602-.7.258-.17.56-.254.904-.254.2 0 .396.033.59.099.193.066.37.174.529.323.16.148.286.343.38.587.095.243.142.543.142.9v.148a.1.1 0 0 1-.1.1h-2.743a.1.1 0 0 1-.1-.1v-.307a.1.1 0 0 1 .1-.1h2.146c.056 0 .1-.045.097-.1a1.21 1.21 0 0 0-.126-.477.974.974 0 0 0-.915-.546c-.233 0-.436.058-.606.174-.17.114-.3.263-.39.447a1.314 1.314 0 0 0-.137.592v.338c0 .288.05.532.149.733.101.199.241.35.42.455.18.103.387.154.624.154.154 0 .293-.022.418-.065a.894.894 0 0 0 .325-.199.871.871 0 0 0 .176-.248.107.107 0 0 1 .124-.06l.38.107a.094.094 0 0 1 .064.124c-.06.153-.15.29-.266.41-.141.145-.315.258-.523.339-.207.08-.44.119-.698.119ZM39.28 50.429c-.368 0-.685-.081-.952-.244a1.635 1.635 0 0 1-.614-.686 2.34 2.34 0 0 1-.214-1.029c0-.39.071-.736.214-1.034.144-.3.345-.533.601-.7.259-.17.56-.254.905-.254.199 0 .395.033.59.099.193.066.37.174.529.323.159.148.286.343.38.587.095.243.142.543.142.9v.148a.1.1 0 0 1-.1.1h-2.743a.1.1 0 0 1-.1-.1v-.307a.1.1 0 0 1 .1-.1h2.146c.055 0 .1-.045.097-.1a1.21 1.21 0 0 0-.126-.477.974.974 0 0 0-.915-.546c-.233 0-.436.058-.606.174-.17.114-.3.263-.39.447a1.314 1.314 0 0 0-.137.592v.338c0 .288.05.532.149.733.1.199.24.35.42.455.179.103.387.154.624.154.154 0 .293-.022.417-.065a.894.894 0 0 0 .326-.199.871.871 0 0 0 .175-.248.107.107 0 0 1 .125-.06l.38.107a.094.094 0 0 1 .064.124c-.061.153-.15.29-.267.41-.14.145-.315.258-.522.339-.207.08-.44.119-.698.119ZM35.47 50.35a.1.1 0 0 1-.1-.1V46.63a.1.1 0 0 1 .1-.1h.366a.1.1 0 0 1 .1.1v.453a.023.023 0 0 0 .045.009.919.919 0 0 1 .373-.445c.182-.118.387-.176.616-.176a6.312 6.312 0 0 1 .218.004c.051.002.09.045.09.096v.378a.112.112 0 0 1-.136.106 1.345 1.345 0 0 0-.222-.018c-.185 0-.351.04-.497.117a.857.857 0 0 0-.467.778v2.316a.1.1 0 0 1-.1.1h-.387Zm.237-5.35a.1.1 0 0 1 .08.04l.407.548a.1.1 0 0 0 .16 0l.407-.548a.1.1 0 0 1 .08-.04h.477a.03.03 0 0 1 .024.048l-.77.987a.1.1 0 0 1-.078.039h-.44a.1.1 0 0 1-.078-.039l-.77-.987A.03.03 0 0 1 35.23 45h.478ZM39.067 2.006c-.043.012-.45.122-.907.249-.99.276-5.798 1.626-7.163 2.012-.533.15-1.385.391-1.894.533-1.413.399-2.795.785-3.927 1.105-.564.158-1.63.458-2.368.667-2.759.774-3.418.963-3.437.983-.012.012-.032.288-.044.615-.02.537-.016.596.04.596.067 0 .856-.197 3.52-.884l4.815-1.231 2.466-.628c.533-.138 1.57-.402 2.309-.592 2.34-.595 3.449-.88 4.238-1.08.422-.111.782-.19.801-.178.016.011.032 8.275.032 18.37 0 17.088-.004 18.347-.067 18.347-.036 0-.58-.134-1.212-.292a2558.05 2558.05 0 0 0-5.963-1.523l-5.525-1.405c-4.049-1.034-5.343-1.358-5.402-1.358-.06 0-.064.068-.056.62l.012.616.316.086c.292.08.596.166 2.17.608.715.198 2.885.805 4.124 1.149 2.873.8 4.85 1.35 6.177 1.724.347.099.781.217.967.269.185.05.789.217 1.341.37.553.158 1.512.423 2.131.596.62.174 1.445.403 1.835.514.391.106.734.197.762.197.036 0 .047-4.128.047-20.518 0-11.287-.011-20.53-.027-20.537a.254.254 0 0 0-.11 0Z"/>
  <path fill="#231D21" fill-rule="evenodd" d="m19.336 10.336-15.6-3.464v31.255l15.6-3.48v-24.31Zm.7 24.872V9.775L3.158 6.027a.1.1 0 0 0-.122.098v32.75a.1.1 0 0 0 .122.098l16.878-3.765Z" clip-rule="evenodd"/>
  <path fill="#231D21" d="M4.537 22.66c0-.088.045-.16.1-.16h2.8c.055 0 .1.072.1.16v.48c0 .088-.045.16-.1.16h-2.8c-.055 0-.1-.072-.1-.16v-.48Z"/>
</svg>
