<svg width="318" height="405" viewBox="0 0 318 405" fill="none" xmlns="http://www.w3.org/2000/svg">
<path d="M312.166 0.566437C311.799 0.666443 308.366 1.59976 304.499 2.66644C296.133 4.99976 255.533 16.3997 243.999 19.6664C239.499 20.9331 232.3 22.9664 228 24.1664C216.066 27.5331 204.4 30.7997 194.833 33.4997C190.066 34.833 181.066 37.3664 174.833 39.1331C151.533 45.6664 145.966 47.2664 145.8 47.433C145.7 47.533 145.533 49.8664 145.433 52.633C145.266 57.1664 145.3 57.6664 145.766 57.6664C146.333 57.6664 153 55.9997 175.5 50.1997C187.733 47.0664 191.666 46.0664 216.166 39.7997C223.133 38.0331 232.5 35.6331 237 34.4997C241.499 33.3331 250.266 31.0997 256.499 29.4997C276.266 24.4664 285.633 22.0664 292.299 20.3664C295.866 19.4331 298.899 18.7664 299.066 18.8664C299.199 18.9664 299.333 88.7663 299.333 174.033C299.333 318.366 299.299 328.999 298.766 328.999C298.466 328.999 293.866 327.866 288.533 326.533C272.733 322.466 250.999 316.933 238.166 313.666C224.533 310.199 207.6 305.899 191.5 301.799C157.3 293.066 146.366 290.333 145.866 290.333C145.366 290.333 145.333 290.899 145.4 295.566L145.5 300.766L148.166 301.499C150.633 302.166 153.2 302.899 166.5 306.633C172.533 308.299 190.866 313.433 201.333 316.333C225.6 323.099 242.299 327.733 253.499 330.899C256.433 331.733 260.099 332.733 261.666 333.166C263.233 333.599 268.333 334.999 272.999 336.299C277.666 337.633 285.766 339.866 290.999 341.333C296.233 342.799 303.199 344.733 306.499 345.666C309.799 346.566 312.699 347.333 312.933 347.333C313.233 347.333 313.333 312.466 313.333 174.033C313.333 78.6996 313.233 0.633118 313.099 0.566437C312.933 0.499786 312.533 0.499786 312.166 0.566437Z" fill="black"/>
<path d="M1.29982 35.0664C1.13316 35.4331 1.06649 40.8664 0.866491 69.833C0.599825 102.7 0.866491 117.3 1.69982 120.4C2.23316 122.3 1.29982 122.066 11.9998 123C16.2998 123.366 21.3331 123.833 23.1665 124C26.6998 124.333 48.6997 126.366 57.9997 127.2C61.0331 127.466 65.8331 127.9 68.6664 128.166C71.4997 128.433 74.0997 128.666 74.4331 128.666C74.9664 128.666 74.9997 126.6 74.9997 90.233V51.7664L71.5997 51.033C69.6997 50.633 65.3331 49.633 61.8331 48.833C58.3664 47.9997 50.4664 46.1997 44.3331 44.833C19.0998 39.0997 2.79982 35.3664 1.93316 35.1331C1.59982 35.0331 1.29982 34.9997 1.29982 35.0664ZM11.7331 43.033C14.1665 43.5997 19.0998 44.733 22.6665 45.533C37.4664 48.8997 41.4998 49.833 55.1664 52.9664L69.4997 56.233L69.5997 89.433C69.6331 108.7 69.5331 122.666 69.3664 122.666C68.0331 122.666 6.79982 116.933 6.66648 116.8C6.56648 116.7 6.43315 103.6 6.39982 87.733C6.26648 58.7997 6.49982 41.9997 6.99981 41.9997C7.16648 41.9997 9.29981 42.4664 11.7331 43.033Z" fill="black"/>
<path d="M281.166 38.033C276.633 39.0997 261.666 42.533 254.166 44.1664C249.633 45.1664 243.266 46.633 223.166 51.1997C219.5 52.033 216.233 52.7997 215.933 52.8664C215.366 53.033 215.333 55.0997 215.333 90.133V127.233L216.1 127.133C216.5 127.066 219.4 126.766 222.5 126.5C225.633 126.266 234.833 125.433 242.999 124.666C251.166 123.9 264.099 122.733 271.766 122.033C279.433 121.3 285.766 120.666 285.866 120.566C286.566 119.866 286.666 112.833 286.466 76.5663C286.266 40.5997 286.199 36.9997 285.699 37.033C285.399 37.0664 283.366 37.4997 281.166 38.033ZM283.799 77.5997C283.933 98.0996 283.933 115.633 283.833 116.533L283.599 118.233L271.699 119.3C265.166 119.866 253.466 120.933 245.666 121.666C237.866 122.4 228.8 123.233 225.5 123.5C222.2 123.766 219.2 124.033 218.833 124.1C218.166 124.166 218.166 123.933 218.066 89.8663C218.033 70.9663 218.1 55.433 218.233 55.2997C218.466 55.0664 224.466 53.6997 249.666 47.9997C258.233 46.0664 270.099 43.3664 277.666 41.633C280.699 40.9664 283.266 40.3664 283.366 40.3664C283.466 40.333 283.666 57.0997 283.799 77.5997Z" fill="black"/>
<path d="M82.2664 90.8996C82.2664 111.4 82.233 128.466 82.1997 128.833C82.1664 129.566 81.0664 129.433 109.666 132C116.166 132.566 125.466 133.4 130.3 133.866C135.166 134.3 139.166 134.6 139.233 134.566C139.3 134.5 139.433 119.2 139.566 100.6L139.766 66.733L137.466 66.1996C136.2 65.933 132.833 65.133 130 64.4996C127.166 63.833 123.266 62.933 121.333 62.4996C116.733 61.4663 111.366 60.233 98.833 57.333C86.533 54.4663 82.9664 53.6663 82.5997 53.6663C82.4664 53.6663 82.2997 70.433 82.2664 90.8996ZM106.933 64.833C116.966 67.133 126 69.233 127 69.4663C128 69.733 130 70.1996 131.433 70.4996L134 71.033V99.8996V128.733L132.933 128.566C132.333 128.466 121.9 127.5 109.766 126.433L87.6664 124.5V92.5996C87.6664 63.933 87.733 60.6663 88.1997 60.6663C88.4664 60.6663 96.8997 62.533 106.933 64.833Z" fill="black"/>
<path d="M201 56.2997C198.9 56.833 193.433 58.0997 188.833 59.0997C167.633 63.8997 160.8 65.433 156.1 66.533L151 67.733V100.366C151 118.3 151.1 133 151.266 133C152.366 133.066 204.566 128.2 204.733 128.033C205.566 127.3 205.7 121.5 205.466 89.0663C205.333 70.533 205.133 55.333 205.033 55.3664C204.933 55.3664 203.1 55.7997 201 56.2997ZM202.866 120.3C202.766 123.1 202.633 125.466 202.566 125.533C202.466 125.633 155.2 130 154.133 130C153.733 130 153.666 125.233 153.666 99.8329C153.666 73.533 153.733 69.6663 154.166 69.6663C154.6 69.6663 183.433 63.1997 197 60.033L202.5 58.7663L202.766 86.9663C202.9 102.466 202.966 117.466 202.866 120.3Z" fill="black"/>
<path d="M0.999825 174.499V218.033L2.76649 217.866C3.69982 217.766 8.99981 217.366 14.4998 216.999C28.2331 216.066 38.3331 215.366 43.4998 214.999C45.8998 214.833 51.3664 214.433 55.6664 214.133C59.9664 213.866 66.0664 213.433 69.1664 213.233L74.8331 212.833L75.1331 185.499C75.4664 156.066 75.1664 140.033 74.2331 137.499L73.7664 136.166L61.1331 135.266C54.1997 134.799 46.2664 134.233 43.4998 134.033C40.7664 133.833 31.0664 133.166 21.9998 132.533C12.9331 131.866 4.49982 131.266 3.26649 131.166L0.999825 130.966V174.499ZM23.8331 138.166C64.2331 141.033 69.1664 141.399 69.3331 141.566C69.5664 141.799 69.5331 207.233 69.2997 207.466C69.0997 207.666 65.7664 207.966 52.9998 208.833C48.8664 209.099 36.8664 209.933 26.3331 210.666C15.7998 211.399 6.96648 211.999 6.76648 211.999C6.43315 211.999 6.33315 204.266 6.33315 174.499C6.33315 138.999 6.36648 136.999 6.93315 136.999C7.23315 136.999 14.8665 137.533 23.8331 138.166Z" fill="black"/>
<path d="M278.499 133.033C276.666 133.166 264.899 133.966 252.333 134.8C226.4 136.533 220.7 136.933 217.733 137.2L215.666 137.4L215.733 174.433L215.833 211.499L221.666 211.899C224.866 212.133 234.1 212.766 242.166 213.333C266.666 215.033 279.666 215.966 283.266 216.199L286.666 216.433V174.533V132.666L284.266 132.7C282.933 132.733 280.333 132.866 278.499 133.033ZM283.999 174.466C283.999 195.766 283.933 213.299 283.866 213.366C283.766 213.433 281.199 213.333 278.099 213.099C275.033 212.899 270.099 212.533 267.166 212.333C264.233 212.133 252.266 211.299 240.599 210.499C228.9 209.666 219.1 208.999 218.833 208.999C218.333 208.999 218.3 205.933 218.366 174.699C218.4 155.799 218.533 140.233 218.633 140.066C218.733 139.9 227.466 139.2 238 138.5C248.533 137.8 263.099 136.833 270.333 136.333C277.566 135.866 283.599 135.5 283.766 135.6C283.899 135.666 283.999 153.133 283.999 174.466Z" fill="black"/>
<path d="M82.5997 137.233C82.033 137.366 81.9997 139.433 81.9997 174.333C81.9997 203.533 82.0997 211.333 82.433 211.566C82.9664 211.899 91.133 211.799 98.6663 211.333C116.7 210.266 133.666 208.933 137.266 208.299L139.333 207.933V175.533C139.333 144.033 139.3 143.133 138.666 142.099C137.566 140.266 136.566 139.999 129.9 139.633C126.566 139.466 121.066 139.099 117.666 138.799C99.133 137.299 84.833 136.633 82.5997 137.233ZM104 143.366C108.866 143.699 116.3 144.233 120.5 144.499C124.733 144.799 129.433 145.133 131 145.266L133.833 145.499L133.733 174.333C133.666 190.199 133.566 203.199 133.533 203.233C133.3 203.466 102.633 205.666 92.0997 206.166L87.6664 206.399V174.333V142.266L91.433 142.499C93.4663 142.633 99.133 142.999 104 143.366Z" fill="black"/>
<path d="M199.5 138.366C197.5 138.533 186.833 139.266 175.833 139.999C164.833 140.733 154.733 141.433 153.433 141.533L151 141.733V174.333V206.933L152.933 207.133C153.966 207.233 160.4 207.699 167.166 208.166C173.966 208.633 184.633 209.399 190.933 209.833C197.233 210.299 203.133 210.666 204.033 210.666H205.666V174.333V137.999L204.433 138.033C203.733 138.066 201.533 138.233 199.5 138.366ZM203 174.299C203 192.633 202.9 207.699 202.766 207.766C202.6 207.866 199.5 207.699 195.833 207.433C192.166 207.166 181.233 206.399 171.5 205.733L153.833 204.499L153.733 174.399C153.666 150.499 153.733 144.299 154.066 144.199C154.3 144.133 164.4 143.466 176.5 142.666C188.6 141.899 198.666 141.233 198.833 141.166C199.033 141.099 200.033 141.033 201.1 141.033L203 140.999V174.299Z" fill="black"/>
<path d="M131.833 214.199C125.1 214.799 101.8 216.899 92.833 217.666C88.633 218.033 84.4664 218.433 83.5664 218.533L81.9997 218.733V256.333C81.9997 277.499 82.133 294.033 82.2997 294.133C82.4664 294.233 85.2664 293.733 88.533 292.966C104.766 289.299 117.766 286.366 131 283.399L139.5 281.499L139.6 247.566L139.666 213.666L138.1 213.699C137.2 213.733 134.4 213.933 131.833 214.199ZM133.933 248.399L133.833 277.133L132.833 277.366C132.3 277.499 130.333 277.933 128.5 278.333C126.666 278.733 120.9 280.033 115.666 281.199C110.433 282.399 103.233 284.033 99.6663 284.833C96.0997 285.633 91.933 286.566 90.433 286.933L87.6664 287.566V255.666V223.733L89.433 223.533C90.3664 223.433 95.533 222.966 100.833 222.499C106.166 222.033 115.166 221.199 120.833 220.699C126.533 220.166 131.8 219.733 132.6 219.699L134 219.666L133.933 248.399Z" fill="black"/>
<path d="M151.066 247.733L151.166 280.433L154.5 281.199C156.333 281.599 162.2 282.933 167.5 284.166C172.833 285.366 180.1 287.033 183.666 287.833C187.233 288.633 193.166 289.999 196.833 290.833C200.5 291.666 203.9 292.433 204.433 292.566L205.333 292.733V256.366V219.999L204.6 219.866C204.166 219.766 197.833 219.166 190.5 218.499C183.166 217.833 171.566 216.799 164.7 216.166C157.866 215.533 151.966 214.999 151.633 214.999C151 214.999 151 215.733 151.066 247.733ZM160.333 218.499C175.333 219.899 202.1 222.333 202.366 222.333C202.533 222.333 202.666 235.933 202.666 255.866V289.399L201.766 289.166C200.666 288.899 190.433 286.566 181.166 284.466C177.5 283.666 173.6 282.766 172.5 282.499C168.933 281.633 154.2 278.333 153.933 278.333C153.766 278.333 153.666 264.766 153.666 248.166C153.666 219.666 153.7 217.999 154.266 217.999C154.566 217.999 157.3 218.233 160.333 218.499Z" fill="black"/>
<path d="M62.1664 220.499C55.7664 221.133 47.8664 221.866 44.6664 222.133C35.0331 222.999 13.5665 224.966 7.29982 225.533L1.43316 226.099L1.26649 269.466C1.16649 293.333 1.09983 312.866 1.13316 312.899C1.19983 312.999 7.73315 311.533 26.9331 307.133C29.7998 306.466 34.0331 305.499 36.3331 304.999C38.6331 304.499 44.4664 303.166 49.3331 302.066C65.9331 298.266 74.4664 296.333 74.7331 296.333C74.8664 296.333 74.9997 278.999 74.9997 257.833C74.9997 221.366 74.9664 219.333 74.4331 219.366C74.0997 219.399 68.5997 219.899 62.1664 220.499ZM69.4997 258.666V291.799L68.4997 292.033C67.9664 292.166 64.7997 292.866 61.4997 293.633C53.1664 295.499 25.0998 301.866 21.6665 302.666C20.0998 303.033 16.2331 303.933 13.0998 304.666C9.93315 305.399 7.16648 305.999 6.96649 305.999C6.66649 305.999 6.59982 297.099 6.73315 268.666C6.83315 248.099 6.96649 231.266 7.03315 231.199C7.19982 231.033 68.7331 225.399 69.1664 225.499C69.3997 225.533 69.4997 236.866 69.4997 258.666Z" fill="black"/>
<path d="M215.333 258.099V295.233L217.266 295.633C218.3 295.866 221.733 296.633 224.833 297.366C244.366 301.799 260.433 305.433 264.333 306.299C272.899 308.199 285.166 310.999 285.766 311.199C286.299 311.366 286.333 309.233 286.333 269.366V227.333H285.566C285.166 227.333 269.633 225.899 251.033 224.166C232.433 222.433 216.8 220.999 216.3 220.999H215.333V258.099ZM237.666 225.666C247.666 226.599 259.733 227.733 264.499 228.166C269.266 228.633 274.966 229.133 277.166 229.333C279.366 229.533 281.733 229.766 282.433 229.866L283.666 230.066V268.866C283.666 303.499 283.599 307.666 283.166 307.666C282.699 307.666 273.333 305.599 264.333 303.499C260.899 302.699 244.999 299.099 231.833 296.133C224.433 294.499 219.466 293.366 218.6 293.099C218.033 292.966 218 291.033 218 258.533C218 239.599 218.1 224.033 218.2 223.933C218.3 223.833 218.633 223.799 218.933 223.866C219.233 223.933 227.666 224.733 237.666 225.666Z" fill="black"/>
<path d="M144.066 359.999C143.166 360.366 143.3 360.699 145.4 363.666C150.066 370.233 149.433 369.599 151.5 369.833C154.533 370.233 156.366 369.866 157.4 368.633C159.133 366.599 163.033 360.666 162.833 360.366C162.533 359.833 160.666 359.599 158.833 359.833C157.133 360.033 157.033 360.099 155.633 362.099C152.9 366.066 153.4 365.966 151.2 362.833C149.533 360.399 149.166 360.066 148.066 359.866C146.4 359.599 145 359.633 144.066 359.999Z" fill="black"/>
<path d="M232.499 360.733C232.399 360.966 232.366 370.833 232.399 382.666L232.499 404.166H234.833H237.166L237.266 396.066C237.299 391.632 237.466 387.999 237.599 387.999C237.733 387.999 240.333 391.332 243.399 395.432C246.466 399.499 249.266 403.166 249.666 403.599C250.299 404.299 250.633 404.366 252.933 404.266C254.933 404.199 255.499 404.066 255.599 403.632C255.633 403.366 252.899 399.466 249.499 395.032L243.266 386.899L248.799 381.366C255.333 374.766 255.666 373.999 251.866 373.999C249.699 373.999 248.666 374.533 246.833 376.633C242.433 381.666 237.833 386.666 237.599 386.666C237.466 386.666 237.299 380.766 237.266 373.566L237.166 360.499L234.899 360.399C233.299 360.333 232.599 360.433 232.499 360.733Z" fill="black"/>
<path d="M201.633 363.199C195.166 364.599 191.133 368.199 188.933 374.533C187.166 379.699 187.1 387.866 188.833 393.499C191.166 401.166 196.5 404.799 205.333 404.766C214.766 404.766 220.766 400.232 223.233 391.299C224.066 388.233 224.1 378.433 223.233 375.333C221.4 368.499 217.333 364.499 210.933 363.199C207.833 362.566 204.6 362.566 201.633 363.199ZM211.266 368.333C212.366 368.799 213.6 369.733 214.633 370.866C217.266 373.733 218.333 377.466 218.333 383.766C218.333 394.366 213.9 400.066 205.666 400.066C199.533 400.032 196.066 397.566 194.3 391.999C193.3 388.899 193.033 381.366 193.8 377.966C195.066 372.233 197.966 368.833 202.566 367.666C204.733 367.133 209.266 367.466 211.266 368.333Z" fill="black"/>
<path d="M3.43315 363.999L2.66649 364.699V384.299C2.66649 401.899 2.73316 403.932 3.19982 404.132C4.19982 404.499 9.53315 404.332 10.0998 403.899C10.5998 403.566 10.6665 402.632 10.7331 396.832L10.8331 390.166L15.1665 389.932C21.8998 389.599 25.6665 387.899 28.2998 383.966C29.9331 381.499 30.4998 379.299 30.4664 375.466C30.4331 372.999 30.2665 372.132 29.5998 370.633C28.4998 368.233 27.0998 366.666 25.0331 365.566C21.7331 363.766 20.7665 363.599 12.1665 363.433C4.36649 363.266 4.13315 363.299 3.43315 363.999ZM17.3998 370.033C19.6665 370.533 21.0998 371.966 21.6665 374.332C22.4665 377.632 21.1998 381.199 18.7665 382.699C17.6998 383.366 16.9331 383.499 14.0998 383.599L10.6665 383.732V376.932C10.6665 373.166 10.7665 369.999 10.8998 369.899C11.2331 369.533 15.4665 369.633 17.3998 370.033Z" fill="black"/>
<path d="M120.933 366.699C120.433 366.966 120.333 367.566 120.333 370.499V373.999H118.366C117.266 373.999 116.3 374.133 116.2 374.299C115.733 375.032 115.633 377.599 115.966 378.932L116.366 380.332H118.333H120.333V387.899C120.333 392.099 120.5 396.466 120.666 397.666C121.133 400.499 122.4 402.532 124.466 403.832C126 404.766 126.3 404.832 129.466 404.832C133.033 404.832 134.766 404.366 135.333 403.299C135.766 402.532 135.766 398.099 135.333 397.832C135.166 397.732 134.133 397.832 133.066 398.032C131.466 398.366 130.966 398.366 130.166 397.966C128.6 397.199 128.366 396.032 128.366 387.732L128.333 380.332H131.666C135.533 380.332 135.666 380.232 135.666 377.032C135.666 373.933 135.766 373.999 131.8 373.999H128.333V370.499C128.333 367.399 128.266 366.999 127.7 366.666C126.866 366.233 121.666 366.233 120.933 366.699Z" fill="black"/>
<path d="M49.8331 373.333C48.1331 373.699 46.7664 374.599 45.2664 376.333C44.4664 377.233 43.7331 377.999 43.5998 377.999C43.4664 377.999 43.3664 377.233 43.3998 376.299C43.3998 375.366 43.2331 374.433 43.0331 374.233C42.3998 373.599 37.3998 373.699 36.9998 374.333C36.7998 374.633 36.6664 380.733 36.6664 389.233C36.6664 403.132 36.6998 403.666 37.2998 403.999C38.2331 404.466 43.7664 404.432 44.2664 403.932C44.5664 403.632 44.6664 401.066 44.6664 394.499V385.499L45.9331 383.833C47.8664 381.299 49.1331 380.566 51.1664 380.799C54.7664 381.266 54.4664 381.366 54.7331 379.333C55.0664 377.133 54.7664 374.099 54.2331 373.766C53.5998 373.366 50.8998 373.133 49.8331 373.333Z" fill="black"/>
<path d="M71.3331 373.233C62.4331 373.866 57.3331 379.833 57.3331 389.566C57.3331 392.499 58.1331 396.266 59.1997 398.366C59.5997 399.199 60.7664 400.632 61.7664 401.566C64.2331 403.799 66.5997 404.666 70.8331 404.899C76.4664 405.199 80.4997 403.832 83.533 400.599C86.3997 397.533 87.8997 392.433 87.533 386.999C87.0664 380.333 84.133 375.799 79.2331 374.133C77.5664 373.566 73.3664 373.099 71.3331 373.233ZM74.4664 379.699C76.2331 380.133 77.5331 381.299 78.4664 383.299C79.0664 384.599 79.1664 385.466 79.1664 388.999C79.1664 392.799 79.0997 393.333 78.2997 395.033C77.1664 397.399 75.7331 398.366 72.8997 398.566C69.3997 398.833 66.9331 397.033 65.9331 393.533C65.2664 391.199 65.4664 386.133 66.2997 383.933C67.7331 380.233 70.6331 378.733 74.4664 379.699Z" fill="black"/>
<path d="M101.8 373.366C98.033 373.699 94.8664 375.599 93.4997 378.332C92.833 379.632 92.6664 380.466 92.6664 382.399C92.6997 386.699 94.433 388.966 99.2664 390.999C104.566 393.232 105.366 393.699 105.833 394.766C106.333 395.999 105.966 397.566 105 398.399C103.3 399.799 99.033 399.432 95.433 397.599C92.7997 396.266 92.4997 396.466 92.4997 399.632C92.4997 402.466 92.933 403.032 95.9664 404.066C99.033 405.132 104.933 405.132 107.666 404.066C110.1 403.099 111.833 401.632 112.933 399.532C113.666 398.132 113.8 397.399 113.833 395.332C113.833 390.499 111.833 388.399 104.666 385.632C101.666 384.499 99.9997 383.199 99.9997 381.999C99.9997 381.132 100.6 379.966 101.3 379.432C102.766 378.366 106.433 378.666 109.833 380.166C112.033 381.166 112.333 380.899 112.333 377.966C112.333 375.932 112.233 375.632 111.466 375.032C109.8 373.732 105.7 373.032 101.8 373.366Z" fill="black"/>
<path d="M148.633 373.833C143.633 375.666 140.7 379.199 139.5 384.899C138.3 390.466 139.366 396.699 142.1 400.399C143.066 401.699 145.833 403.499 148 404.232C150.766 405.166 157.966 405.099 161.3 404.099C165.166 402.932 165.333 402.766 165.333 399.832C165.333 396.999 164.966 396.633 162.9 397.499C159.833 398.766 154.433 399.366 152.033 398.666C149.266 397.866 147.5 395.666 147.266 392.666L147.166 391.166L156.3 391.066C164.433 390.999 165.533 390.933 166.1 390.399C166.666 389.899 166.733 389.466 166.6 386.166C166.466 383.533 166.233 381.999 165.733 380.666C164.433 377.333 161.766 374.899 158.333 373.866C156.133 373.199 150.366 373.199 148.633 373.833ZM156.466 379.633C157.8 380.366 159 382.733 159 384.566V385.999H153H147L147.2 385.066C148 381.399 149.233 379.566 151.266 379.133C151.766 379.033 152.333 378.899 152.5 378.833C153.133 378.599 155.5 379.066 156.466 379.633Z" fill="black"/>
<path d="M272.666 374.133C271.199 374.633 269.166 375.966 267.733 377.299C267.133 377.866 266.566 378.333 266.466 378.333C266.399 378.333 266.333 377.533 266.333 376.566C266.333 375.599 266.166 374.633 265.933 374.399C265.499 373.966 262.733 373.866 262.066 374.266C261.733 374.499 261.666 377.733 261.733 389.366L261.833 404.166H264.166H266.499L266.666 393.732L266.833 383.266L269.199 380.999C271.099 379.199 271.899 378.666 273.233 378.366C276.499 377.566 279.333 379.166 280.333 382.366C280.666 383.399 280.833 386.732 280.966 393.999L281.166 404.166L282.166 404.332C282.733 404.432 283.766 404.432 284.499 404.332L285.833 404.166L285.933 393.866C285.966 387.966 285.866 382.766 285.666 381.733C284.966 377.966 282.833 375.233 279.733 374.199C277.933 373.566 274.299 373.533 272.666 374.133Z" fill="black"/>
<path d="M300.566 374.466C296.466 375.699 295.033 377.099 295.466 379.433C295.599 380.133 295.899 380.666 296.133 380.666C296.399 380.666 297.699 380.133 299.033 379.499C304.699 376.833 309.733 377.299 311.399 380.666C311.733 381.333 312.066 382.933 312.199 384.266L312.433 386.666H309.733C302.099 386.666 296.733 388.633 294.966 392.066C294.099 393.766 293.799 396.966 294.299 398.866C294.833 400.799 296.933 403.066 299.066 403.999C301.633 405.099 305.833 405.066 308.366 403.933C309.366 403.466 310.733 402.633 311.399 402.033C312.066 401.466 312.666 400.999 312.766 400.999C312.866 400.999 312.999 401.699 313.066 402.566L313.166 404.166H315.166H317.166L317.266 393.166C317.366 380.666 317.166 379.099 315.166 376.733C313.366 374.666 311.199 373.899 306.833 373.766C303.733 373.699 302.766 373.799 300.566 374.466ZM312.266 393.466L312.366 396.433L310.833 397.866C308.699 399.933 307.033 400.699 304.666 400.699C301.266 400.733 299.333 398.999 299.333 395.966C299.333 392.099 302.699 390.299 309.666 390.466L312.166 390.499L312.266 393.466Z" fill="black"/>
</svg>
