<svg width="140" height="40" viewBox="0 0 140 40" fill="none" xmlns="http://www.w3.org/2000/svg">
<g clip-path="url(#clip0_117_511)">
<mask id="mask0_117_511" style="mask-type:luminance" maskUnits="userSpaceOnUse" x="-5" y="0" width="150" height="40">
<path d="M144.967 0H-5V40H144.967V0Z" fill="white"/>
</mask>
<g mask="url(#mask0_117_511)">
<path d="M10.7639 19.2471C14.6081 19.2471 14.9579 18.8137 14.9579 18.0785C14.9579 17.2549 14.6381 16.9518 11.5506 16.9518H9.07483C6.71546 16.9518 6.22073 17.3413 6.22073 18.2513C6.22073 18.9663 6.97676 19.2471 9.16193 19.2471H10.7639ZM0.801686 17.7956C0.801686 14.7841 3.59726 14.6112 9.0163 14.6112C12.0739 14.6112 13.7636 14.6754 14.8409 15.499V14.5255C14.8409 13.4413 14.4033 13.0518 12.2188 13.0518H8.9278C7.29798 13.0518 6.83113 13.1598 6.77329 13.9395H1.35564C1.35564 10.9488 3.33665 10.452 8.05401 10.452H14.5489C18.3939 10.452 20.432 11.8157 20.432 14.4161V21.6733H15.1314V20.4163C13.588 21.6085 13.0041 21.8469 10.2092 21.8469H6.39283C2.98477 21.8678 0.800293 21.3061 0.800293 18.705V17.7956H0.801686Z" fill="#C2222A"/>
</g>
<mask id="mask1_117_511" style="mask-type:luminance" maskUnits="userSpaceOnUse" x="-5" y="0" width="150" height="40">
<path d="M144.967 0H-5V40H144.967V0Z" fill="white"/>
</mask>
<g mask="url(#mask1_117_511)">
<path d="M29.9288 5.98828H24.3369V21.6733H29.9288V5.98828Z" fill="#C2222A"/>
</g>
<mask id="mask2_117_511" style="mask-type:luminance" maskUnits="userSpaceOnUse" x="-5" y="0" width="150" height="40">
<path d="M144.967 0H-5V40H144.967V0Z" fill="white"/>
</mask>
<g mask="url(#mask2_117_511)">
<path d="M34.4136 21.6733H40.0054V10.6241H34.4136V21.6733ZM34.4136 9.23817H40.0054V5.98828H34.4136V9.23817Z" fill="#C2222A"/>
</g>
<mask id="mask3_117_511" style="mask-type:luminance" maskUnits="userSpaceOnUse" x="-5" y="0" width="150" height="40">
<path d="M144.967 0H-5V40H144.967V0Z" fill="white"/>
</mask>
<g mask="url(#mask3_117_511)">
<path d="M49.7625 16.6912C49.7625 18.3601 50.929 18.728 53.1427 18.728H56.0846C58.7638 18.728 59.0258 18.034 59.0258 16.7999V15.5011C59.0258 14.265 58.7638 13.5723 56.0846 13.5723H53.1427C50.929 13.5723 49.7625 13.9403 49.7625 15.6077V16.6912ZM44.1714 10.6263H49.5904V12.2721H49.6476C50.3478 11.2973 51.6286 10.4528 54.891 10.4528H56.493C63.569 10.4528 64.4435 12.3376 64.4435 15.1541V17.147C64.4435 19.9634 63.569 21.849 56.493 21.849H55.3558C52.1825 21.849 51.0746 21.5236 49.8232 19.769H49.7632V25.5316H44.1721V10.6263H44.1714Z" fill="#C2222A"/>
</g>
<mask id="mask4_117_511" style="mask-type:luminance" maskUnits="userSpaceOnUse" x="-5" y="0" width="150" height="40">
<path d="M144.967 0H-5V40H144.967V0Z" fill="white"/>
</mask>
<g mask="url(#mask4_117_511)">
<path d="M73.045 5.98828H67.4531V21.6733H73.045V5.98828Z" fill="#C2222A"/>
</g>
<mask id="mask5_117_511" style="mask-type:luminance" maskUnits="userSpaceOnUse" x="-5" y="0" width="150" height="40">
<path d="M144.967 0H-5V40H144.967V0Z" fill="white"/>
</mask>
<g mask="url(#mask5_117_511)">
<path d="M85.8523 19.2471C89.6973 19.2471 90.0478 18.8137 90.0478 18.0785C90.0478 17.2549 89.7266 16.9518 86.6369 16.9518H84.1633C81.8032 16.9518 81.3085 17.3413 81.3085 18.2513C81.3085 18.9663 82.0645 19.2471 84.2504 19.2471H85.8523ZM75.8901 17.7956C75.8901 14.7841 78.6871 14.6112 84.1048 14.6112C87.163 14.6112 88.8528 14.6754 89.93 15.499V14.5255C89.93 13.4413 89.4917 13.0518 87.3066 13.0518H84.017C82.3864 13.0518 81.9203 13.1598 81.861 13.9395H76.4448C76.4448 10.9488 78.4258 10.452 83.1432 10.452H89.6381C93.4816 10.452 95.5219 11.8157 95.5219 14.4161V21.6733H90.2199V20.4163C88.6765 21.6085 88.094 21.8469 85.297 21.8469H81.4827C78.0746 21.8678 75.8901 21.3061 75.8901 18.705V17.7956Z" fill="#C2222A"/>
</g>
<mask id="mask6_117_511" style="mask-type:luminance" maskUnits="userSpaceOnUse" x="-5" y="0" width="150" height="40">
<path d="M144.967 0H-5V40H144.967V0Z" fill="white"/>
</mask>
<g mask="url(#mask6_117_511)">
<path d="M104.317 18.2297C104.317 18.836 104.609 19.2471 107.783 19.2471H109.765C112.416 19.2471 113.086 19.0966 113.086 18.4249C113.086 17.7754 112.648 17.5148 110.667 17.5148H105.427C100.213 17.4925 98.6685 16.6494 98.6685 13.6155C98.6685 10.8631 101.64 10.452 105.485 10.452H109.389C116.7 10.452 117.98 11.2108 118.039 13.8113H112.446C112.157 13.1598 111.63 13.0525 108.279 13.0525C105.048 13.0525 104.436 13.1173 104.436 13.8747C104.436 14.352 104.874 14.5255 107.784 14.5255H111.66C118.358 14.5255 118.854 16.193 118.854 18.1656C118.854 21.0901 117.281 21.8482 110.904 21.8482H105.602C100.446 21.8482 98.5542 20.9584 98.5542 18.2297H104.317Z" fill="#C2222A"/>
</g>
<mask id="mask7_117_511" style="mask-type:luminance" maskUnits="userSpaceOnUse" x="-5" y="0" width="150" height="40">
<path d="M144.967 0H-5V40H144.967V0Z" fill="white"/>
</mask>
<g mask="url(#mask7_117_511)">
<path d="M123.484 13.6155H120.688V10.6248H123.484V8.02576H129.076V10.6248H137.754V13.6155H129.076V17.8618C129.076 18.6841 129.892 18.859 131.23 18.859C133.038 18.859 133.532 18.5545 133.532 17.5364V16.7992H138.424V18.1433C138.424 20.2442 136.56 21.8476 132.105 21.8476H129.892C126.454 21.8476 123.484 21.0462 123.484 17.9914V13.6155Z" fill="#C2222A"/>
</g>
<mask id="mask8_117_511" style="mask-type:luminance" maskUnits="userSpaceOnUse" x="-5" y="0" width="150" height="40">
<path d="M144.967 0H-5V40H144.967V0Z" fill="white"/>
</mask>
<g mask="url(#mask8_117_511)">
<path d="M137.438 7.60566H137.866C138.194 7.60566 138.27 7.46978 138.27 7.31161C138.27 7.09839 138.045 7.07888 137.873 7.07888H137.438V7.60566ZM138.477 8.5115H138.222L137.755 7.79937H137.439V8.5115H137.21V6.88238H137.919C138.215 6.88238 138.501 6.9646 138.501 7.31509C138.501 7.63562 138.283 7.76871 137.994 7.77707L138.477 8.5115ZM136.528 7.68858C136.528 8.37214 137.072 8.92192 137.752 8.92192C138.428 8.92192 138.969 8.37214 138.969 7.68858C138.969 7.02104 138.428 6.47126 137.752 6.47126C137.072 6.47126 136.528 7.02034 136.528 7.68858ZM139.206 7.69624C139.206 8.50593 138.554 9.15117 137.751 9.15117C136.941 9.15117 136.289 8.50593 136.289 7.69624C136.289 6.89422 136.941 6.24341 137.751 6.24341C138.555 6.24271 139.206 6.89422 139.206 7.69624Z" fill="#C2222A"/>
</g>
<mask id="mask9_117_511" style="mask-type:luminance" maskUnits="userSpaceOnUse" x="-5" y="0" width="150" height="40">
<path d="M144.967 0H-5V40H144.967V0Z" fill="white"/>
</mask>
<g mask="url(#mask9_117_511)">
<path d="M47.0866 28.7821H47.9569L50.3108 34.1705H49.3185L48.7743 32.8786H46.2456L45.6937 34.1705H44.7314L47.0866 28.7821ZM48.4308 32.0452L47.5047 29.9067L46.5877 32.0452H48.4308Z" fill="#696A6C"/>
</g>
<mask id="mask10_117_511" style="mask-type:luminance" maskUnits="userSpaceOnUse" x="-5" y="0" width="150" height="40">
<path d="M144.967 0H-5V40H144.967V0Z" fill="white"/>
</mask>
<g mask="url(#mask10_117_511)">
<path d="M51.5615 28.8198H52.5008V33.3142H55.3131V34.1706H51.5615V28.8198Z" fill="#696A6C"/>
</g>
<mask id="mask11_117_511" style="mask-type:luminance" maskUnits="userSpaceOnUse" x="-5" y="0" width="150" height="40">
<path d="M144.967 0H-5V40H144.967V0Z" fill="white"/>
</mask>
<g mask="url(#mask11_117_511)">
<path d="M56.4141 31.9011V28.8198H57.3547V31.8621C57.3547 32.8564 57.8662 33.3832 58.7079 33.3832C59.5406 33.3832 60.0521 32.8871 60.0521 31.9011V28.8205H60.9928V31.8544C60.9928 33.4529 60.0918 34.2542 58.6919 34.2542C57.3011 34.2542 56.4141 33.4515 56.4141 31.9011Z" fill="#696A6C"/>
</g>
<mask id="mask12_117_511" style="mask-type:luminance" maskUnits="userSpaceOnUse" x="-5" y="0" width="150" height="40">
<path d="M144.967 0H-5V40H144.967V0Z" fill="white"/>
</mask>
<g mask="url(#mask12_117_511)">
<path d="M62.7236 28.8198H63.7249L65.352 31.3513L66.9797 28.8198H67.9817V34.1706H67.0417V30.334L65.352 32.8564H65.3213L63.6483 30.3493V34.1706H62.7236V28.8198Z" fill="#696A6C"/>
</g>
<mask id="mask13_117_511" style="mask-type:luminance" maskUnits="userSpaceOnUse" x="-5" y="0" width="150" height="40">
<path d="M144.967 0H-5V40H144.967V0Z" fill="white"/>
</mask>
<g mask="url(#mask13_117_511)">
<path d="M70.7442 28.8198H69.8042V34.1713H70.7442V28.8198Z" fill="#696A6C"/>
</g>
<mask id="mask14_117_511" style="mask-type:luminance" maskUnits="userSpaceOnUse" x="-5" y="0" width="150" height="40">
<path d="M144.967 0H-5V40H144.967V0Z" fill="white"/>
</mask>
<g mask="url(#mask14_117_511)">
<path d="M72.5474 28.8198H73.4198L76.2857 32.5192V28.8198H77.2104V34.1706H76.423L73.4727 30.3639V34.1706H72.5474V28.8198Z" fill="#696A6C"/>
</g>
<mask id="mask15_117_511" style="mask-type:luminance" maskUnits="userSpaceOnUse" x="-5" y="0" width="150" height="40">
<path d="M144.967 0H-5V40H144.967V0Z" fill="white"/>
</mask>
<g mask="url(#mask15_117_511)">
<path d="M79.9676 28.8198H79.0283V34.1713H79.9676V28.8198Z" fill="#696A6C"/>
</g>
<mask id="mask16_117_511" style="mask-type:luminance" maskUnits="userSpaceOnUse" x="-5" y="0" width="150" height="40">
<path d="M144.967 0H-5V40H144.967V0Z" fill="white"/>
</mask>
<g mask="url(#mask16_117_511)">
<path d="M81.7188 31.9011V28.8198H82.6594V31.8621C82.6594 32.8564 83.1709 33.3832 84.0112 33.3832C84.8446 33.3832 85.3554 32.8871 85.3554 31.9011V28.8205H86.2981V31.8544C86.2981 33.4529 85.3951 34.2542 83.9966 34.2542C82.6065 34.2542 81.7188 33.4515 81.7188 31.9011Z" fill="#696A6C"/>
</g>
<mask id="mask17_117_511" style="mask-type:luminance" maskUnits="userSpaceOnUse" x="-5" y="0" width="150" height="40">
<path d="M144.967 0H-5V40H144.967V0Z" fill="white"/>
</mask>
<g mask="url(#mask17_117_511)">
<path d="M88.0264 28.8198H89.0291L90.6568 31.3513L92.2852 28.8198H93.2851V34.1706H92.3452V30.334L90.6568 32.8564H90.6261L88.9524 30.3493V34.1706H88.0264V28.8198Z" fill="#696A6C"/>
</g>
<mask id="mask18_117_511" style="mask-type:luminance" maskUnits="userSpaceOnUse" x="-5" y="0" width="150" height="40">
<path d="M144.967 0H-5V40H144.967V0Z" fill="white"/>
</mask>
<g mask="url(#mask18_117_511)">
<path d="M99.6069 33.3916L100.173 32.7178C100.686 33.1616 101.205 33.4132 101.864 33.4132C102.444 33.4132 102.811 33.1393 102.811 32.7408V32.7261C102.811 32.3436 102.598 32.138 101.604 31.9088C100.465 31.6328 99.8243 31.297 99.8243 30.3103V30.2957C99.8243 29.3787 100.587 28.7439 101.65 28.7439C102.428 28.7439 103.048 28.9815 103.591 29.417L103.085 30.1264C102.605 29.7689 102.124 29.5766 101.633 29.5766C101.083 29.5766 100.764 29.8602 100.764 30.2114V30.226C100.764 30.6392 101.007 30.8225 102.039 31.067C103.169 31.3423 103.751 31.7485 103.751 32.6348V32.6495C103.751 33.6515 102.965 34.2459 101.841 34.2459C101.022 34.2466 100.25 33.963 99.6069 33.3916Z" fill="#696A6C"/>
</g>
<mask id="mask19_117_511" style="mask-type:luminance" maskUnits="userSpaceOnUse" x="-5" y="0" width="150" height="40">
<path d="M144.967 0H-5V40H144.967V0Z" fill="white"/>
</mask>
<g mask="url(#mask19_117_511)">
<path d="M106.708 32.0607L104.583 28.8198H105.699L107.19 31.1827L108.702 28.8198H109.78L107.656 32.0384V34.1706H106.708V32.0607Z" fill="#696A6C"/>
</g>
<mask id="mask20_117_511" style="mask-type:luminance" maskUnits="userSpaceOnUse" x="-5" y="0" width="150" height="40">
<path d="M144.967 0H-5V40H144.967V0Z" fill="white"/>
</mask>
<g mask="url(#mask20_117_511)">
<path d="M110.415 33.3916L110.981 32.7178C111.493 33.1616 112.012 33.4132 112.67 33.4132C113.25 33.4132 113.616 33.1393 113.616 32.7408V32.7261C113.616 32.3436 113.405 32.138 112.412 31.9088C111.272 31.6328 110.631 31.297 110.631 30.3103V30.2957C110.631 29.3787 111.394 28.7439 112.455 28.7439C113.235 28.7439 113.854 28.9815 114.398 29.417L113.892 30.1264C113.411 29.7689 112.931 29.5766 112.442 29.5766C111.892 29.5766 111.569 29.8602 111.569 30.2114V30.226C111.569 30.6392 111.814 30.8225 112.846 31.067C113.975 31.3423 114.557 31.7485 114.557 32.6348V32.6495C114.557 33.6515 113.77 34.2459 112.646 34.2459C111.828 34.2466 111.057 33.963 110.415 33.3916Z" fill="#696A6C"/>
</g>
<mask id="mask21_117_511" style="mask-type:luminance" maskUnits="userSpaceOnUse" x="-5" y="0" width="150" height="40">
<path d="M144.967 0H-5V40H144.967V0Z" fill="white"/>
</mask>
<g mask="url(#mask21_117_511)">
<path d="M117.32 29.6915H115.625V28.8198H119.963V29.6915H118.267V34.1706H117.32V29.6915Z" fill="#696A6C"/>
</g>
<mask id="mask22_117_511" style="mask-type:luminance" maskUnits="userSpaceOnUse" x="-5" y="0" width="150" height="40">
<path d="M144.967 0H-5V40H144.967V0Z" fill="white"/>
</mask>
<g mask="url(#mask22_117_511)">
<path d="M121.248 28.8198H125.216V29.6616H122.189V31.0517H124.874V31.892H122.189V33.3295H125.253V34.1706H121.248V28.8198Z" fill="#696A6C"/>
</g>
<mask id="mask23_117_511" style="mask-type:luminance" maskUnits="userSpaceOnUse" x="-5" y="0" width="150" height="40">
<path d="M144.967 0H-5V40H144.967V0Z" fill="white"/>
</mask>
<g mask="url(#mask23_117_511)">
<path d="M126.778 28.8198H127.78L129.407 31.3513L131.037 28.8198H132.036V34.1706H131.098V30.334L129.407 32.8564H129.38L127.704 30.3493V34.1706H126.778V28.8198Z" fill="#696A6C"/>
</g>
<mask id="mask24_117_511" style="mask-type:luminance" maskUnits="userSpaceOnUse" x="-5" y="0" width="150" height="40">
<path d="M144.967 0H-5V40H144.967V0Z" fill="white"/>
</mask>
<g mask="url(#mask24_117_511)">
<path d="M133.437 33.3916L134.002 32.7178C134.514 33.1616 135.034 33.4132 135.691 33.4132C136.273 33.4132 136.638 33.1393 136.638 32.7408V32.7261C136.638 32.3436 136.426 32.138 135.432 31.9088C134.293 31.6328 133.652 31.297 133.652 30.3103V30.2957C133.652 29.3787 134.414 28.7439 135.476 28.7439C136.257 28.7439 136.875 28.9815 137.419 29.417L136.914 30.1264C136.431 29.7689 135.951 29.5766 135.46 29.5766C134.91 29.5766 134.59 29.8602 134.59 30.2114V30.226C134.59 30.6392 134.836 30.8225 135.866 31.067C136.998 31.3423 137.578 31.7485 137.578 32.6348V32.6495C137.578 33.6515 136.792 34.2459 135.668 34.2459C134.85 34.2466 134.078 33.963 133.437 33.3916Z" fill="#696A6C"/>
</g>
</g>
<defs>
<clipPath id="clip0_117_511">
<rect width="140" height="40" fill="white"/>
</clipPath>
</defs>
</svg>
