<svg width="157" height="40" viewBox="0 0 157 40" fill="none" xmlns="http://www.w3.org/2000/svg">
<g clip-path="url(#clip0_105_659)">
<path d="M25.4751 15.307H15.3134L13.5254 19.6169H23.6519L25.4751 15.307Z" fill="#F68712"/>
<path d="M27.8608 2.91759H33.1907V21.6052H44.739L42.9222 25.948H27.8608V2.91759Z" fill="#1E1F43"/>
<mask id="mask0_105_659" style="mask-type:luminance" maskUnits="userSpaceOnUse" x="-155" y="-98" width="465" height="262">
<path d="M-154.13 -97.8548H309.9V163.162H-154.13V-97.8548Z" fill="white"/>
</mask>
<g mask="url(#mask0_105_659)">
<path d="M44.8091 15.8146V2.9177H50.1391V15.6174C50.1391 19.9933 52.0472 21.8028 55.2715 21.8028C58.5289 21.8028 60.4041 19.9933 60.4041 15.6174V2.9177H65.6685V15.8146C65.6685 22.5921 61.7861 26.343 55.2384 26.343C48.6912 26.343 44.8091 22.5921 44.8091 15.8146Z" fill="#1E1F43"/>
<path d="M82.5661 11.2744C82.5661 8.74111 80.921 7.26057 77.6638 7.26057H73.321V15.2554H77.6638C80.921 15.2554 82.5661 13.7749 82.5661 11.2744ZM87.9619 11.2744C87.9619 16.4068 84.1124 19.5985 77.9596 19.5985H73.321V25.9482H67.9912V2.91753H77.9596C84.1124 2.91753 87.9619 6.10895 87.9619 11.2744Z" fill="#1E1F43"/>
<path d="M130.42 14.4329C130.42 10.0572 127.327 7.06304 123.215 7.06304C119.102 7.06304 116.01 10.0572 116.01 14.4329C116.01 18.8086 119.102 21.8028 123.215 21.8028C127.327 21.8028 130.42 18.8086 130.42 14.4329ZM110.614 14.4329C110.614 7.58966 115.944 2.52255 123.215 2.52255C130.453 2.52255 135.816 7.55631 135.816 14.4329C135.816 21.309 130.453 26.3428 123.215 26.3428C115.944 26.3428 110.614 21.2761 110.614 14.4329Z" fill="#1E1F43"/>
<path d="M142.854 7.19489V15.307H149.309L147.306 19.6169H142.854V25.9482H137.524V2.91759H154.854L152.955 7.19489H142.854Z" fill="#1E1F43"/>
<path d="M105.04 20.6115H99.1001L103.709 25.9481H109.649L105.04 20.6115Z" fill="#1E1F43"/>
<path d="M103.825 11.2744C103.825 8.74111 102.18 7.26057 98.9233 7.26057H94.5803V15.2554H98.9233C102.18 15.2554 103.825 13.7749 103.825 11.2744ZM109.221 11.2744C109.221 16.4068 105.372 19.5985 99.2189 19.5985H94.5803V25.9482H89.2505V2.91753H99.2189C105.372 2.91753 109.221 6.10895 109.221 11.2744Z" fill="#1E1F43"/>
<path d="M16.5033 15.307H21.7526L16.1944 2.93095H10.9187L0.668945 25.9481H6.12348L13.5274 8.14815L16.5033 15.307Z" fill="#1E1F43"/>
<path d="M26.477 25.9435H20.9101L18.6997 20.6253H24.1286L26.477 25.9435Z" fill="#1E1F43"/>
<path d="M59.5586 35.3187L58.319 32.5031L57.0795 35.3187H59.5586ZM59.846 35.9753H56.7923L56.1601 37.4119H55.3145L57.9169 31.6656H58.7294L61.3401 37.4119H60.478L59.846 35.9753Z" fill="#1E1F43"/>
<path d="M62.6943 31.6656H63.5151V36.6976H66.6265V37.4118H62.6943V31.6656Z" fill="#1E1F43"/>
<path d="M67.9233 34.9327V31.6654H68.7441V34.8999C68.7441 36.1723 69.327 36.7471 70.3614 36.7471C71.3958 36.7471 71.9867 36.1723 71.9867 34.8999V31.6654H72.7831V34.9327C72.7831 36.5994 71.8717 37.4774 70.3532 37.4774C68.8427 37.4774 67.9233 36.5994 67.9233 34.9327Z" fill="#1E1F43"/>
<path d="M80.2935 37.4119L80.2853 33.2254L78.2082 36.7141H77.8307L75.7537 33.2499V37.4119H74.9658V31.6656H75.6389L78.0359 35.7046L80.4001 31.6656H81.0734L81.0816 37.4119H80.2935Z" fill="#1E1F43"/>
<path d="M83.3057 31.6655H84.1264V37.4117H83.3057V31.6655Z" fill="#1E1F43"/>
<path d="M91.2932 31.6656V37.4118H90.6202L87.1723 33.1268V37.4118H86.3516V31.6656H87.0246L90.4725 35.9506V31.6656H91.2932Z" fill="#1E1F43"/>
<path d="M93.5176 31.6655H94.3383V37.4117H93.5176V31.6655Z" fill="#1E1F43"/>
<path d="M96.5137 34.9327V31.6654H97.3344V34.8999C97.3344 36.1723 97.9176 36.7471 98.9518 36.7471C99.9862 36.7471 100.577 36.1723 100.577 34.8999V31.6654H101.373V34.9327C101.373 36.5994 100.462 37.4774 98.9438 37.4774C97.4333 37.4774 96.5137 36.5994 96.5137 34.9327Z" fill="#1E1F43"/>
<path d="M108.884 37.4119L108.876 33.2254L106.799 36.7141H106.421L104.344 33.2499V37.4119H103.556V31.6656H104.229L106.626 35.7046L108.99 31.6656H109.664L109.672 37.4119H108.884Z" fill="#1E1F43"/>
<path d="M114.08 36.7553L114.383 36.1151C114.81 36.5005 115.541 36.7799 116.28 36.7799C117.273 36.7799 117.7 36.394 117.7 35.8932C117.7 34.4895 114.219 35.376 114.219 33.2417C114.219 32.3552 114.909 31.5999 116.419 31.5999C117.092 31.5999 117.79 31.7805 118.266 32.1089L117.995 32.7656C117.495 32.4453 116.928 32.2977 116.419 32.2977C115.442 32.2977 115.024 32.7081 115.024 33.2088C115.024 34.6128 118.504 33.7342 118.504 35.8439C118.504 36.7222 117.798 37.4774 116.28 37.4774C115.401 37.4774 114.539 37.1821 114.08 36.7553Z" fill="#1E1F43"/>
<path d="M122.28 35.4253V37.4119H121.468V35.4089L119.186 31.6654H120.064L121.903 34.6947L123.75 31.6654H124.562L122.28 35.4253Z" fill="#1E1F43"/>
<path d="M125.244 36.7553L125.547 36.1151C125.974 36.5005 126.705 36.7799 127.444 36.7799C128.437 36.7799 128.864 36.394 128.864 35.8932C128.864 34.4895 125.383 35.376 125.383 33.2417C125.383 32.3552 126.073 31.5999 127.583 31.5999C128.256 31.5999 128.954 31.7805 129.43 32.1089L129.159 32.7656C128.659 32.4453 128.092 32.2977 127.583 32.2977C126.606 32.2977 126.188 32.7081 126.188 33.2088C126.188 34.6128 129.668 33.7342 129.668 35.8439C129.668 36.7222 128.962 37.4774 127.444 37.4774C126.565 37.4774 125.703 37.1821 125.244 36.7553Z" fill="#1E1F43"/>
<path d="M132.426 32.3797H130.456V31.6656H135.209V32.3797H133.239V37.4118H132.426V32.3797Z" fill="#1E1F43"/>
<path d="M140.774 36.6977V37.4119H136.604V31.6656H140.659V32.3798H137.425V34.1448H140.306V34.8423H137.425V36.6977H140.774Z" fill="#1E1F43"/>
<path d="M147.932 37.4119L147.924 33.2254L145.847 36.7141H145.47L143.393 33.2499V37.4119H142.604V31.6656H143.278L145.675 35.7046L148.039 31.6656H148.712L148.72 37.4119H147.932Z" fill="#1E1F43"/>
<path d="M150.419 36.7553L150.723 36.1151C151.15 36.5005 151.88 36.7799 152.619 36.7799C153.612 36.7799 154.039 36.394 154.039 35.8932C154.039 34.4895 150.558 35.376 150.558 33.2417C150.558 32.3552 151.248 31.5999 152.759 31.5999C153.432 31.5999 154.129 31.7805 154.605 32.1089L154.335 32.7656C153.834 32.4453 153.267 32.2977 152.759 32.2977C151.782 32.2977 151.363 32.7081 151.363 33.2088C151.363 34.6128 154.844 33.7342 154.844 35.8439C154.844 36.7222 154.138 37.4774 152.619 37.4774C151.741 37.4774 150.879 37.1821 150.419 36.7553Z" fill="#1E1F43"/>
</g>
</g>
<defs>
<clipPath id="clip0_105_659">
<rect width="157" height="40" fill="white"/>
</clipPath>
</defs>
</svg>
